<svg width="144" height="70" viewBox="0 0 144 70" fill="none" xmlns="http://www.w3.org/2000/svg">
<g id="Logos">
<g id="Botox cosmetic Botulinum Toxin Type A">
<g id="Variant=Black" opacity="0.7" clip-path="url(#clip0_2003_38960)">
<g id="Vector">
<path d="M65.699 34.1826C63.7534 33.0324 61.883 32.5057 59.7761 32.5057C55.3581 32.5057 51.2733 35.795 50.2414 40.1915C49.1987 44.674 51.757 47.8236 56.3793 47.8236C58.3787 47.8236 60.3995 47.2861 63.1084 46.0392L62.7859 47.4366C60.4855 48.5116 58.1744 49.0705 56.1213 49.0705C50.7143 49.0705 47.5755 45.276 48.758 40.1808C49.9941 34.8598 55.2828 31.248 60.1416 31.248C62.1194 31.248 64.1081 31.7318 66.043 32.6992L65.699 34.1719" fill="black"/>
<path d="M77.3516 43.1479C78.1471 39.7404 76.2229 37.1928 72.8154 37.1928C69.4078 37.1928 66.269 39.7404 65.4735 43.1479C64.6888 46.534 66.6345 49.0816 70.042 49.0816C73.4496 49.0816 76.5562 46.534 77.3409 43.1479M76.0294 43.1479C75.3952 45.8783 72.9551 47.8884 70.3323 47.8884C67.7094 47.8884 66.1723 45.8783 66.8065 43.1479C67.4514 40.3961 69.8915 38.3859 72.5359 38.3859C75.1802 38.3859 76.6637 40.4283 76.0294 43.1479Z" fill="black"/>
<path d="M87.3484 39.4824C86.2412 38.6439 85.4672 38.3107 84.4246 38.3107C83.0271 38.3107 81.7372 39.1491 81.4792 40.2456C80.8343 42.9974 87.1334 41.9547 86.2089 45.9213C85.7897 47.7057 83.8118 49.0816 81.6512 49.0816C80.458 49.0816 79.4153 48.7483 78.3834 48.0389L78.6629 46.8457C80.0173 47.6089 80.9632 47.8884 82.0812 47.8884C83.5109 47.8884 84.7363 47.0714 85.0158 45.8998C85.65 43.1802 79.4046 43.9864 80.2645 40.3208C80.673 38.5687 82.6509 37.1928 84.7578 37.1928C85.7682 37.1928 86.6389 37.4937 87.6494 38.1602L87.3376 39.4824" fill="black"/>
<path d="M91.3362 39.4286H91.39C92.7981 37.827 94.0451 37.1928 95.6252 37.1928C97.4419 37.1928 98.4308 38.085 98.7533 39.9446C100.366 38.0312 101.752 37.1928 103.451 37.1928C105.891 37.1928 107.073 39.0309 106.418 41.8257L104.784 48.8558H103.537L105.052 42.3632C105.59 40.0736 104.988 38.3859 102.935 38.3859C101.505 38.3859 100.398 39.1491 98.7748 41.0625L96.9582 48.8558H95.7112L97.2269 42.3417C97.8826 39.5146 96.7217 38.3967 95.077 38.3967C93.6474 38.3967 92.4972 39.0846 91.003 40.8368L89.1326 48.8558H87.8857L90.5515 37.4292H91.7985L91.3255 39.4394" fill="black"/>
<path d="M119.349 42.7069C120.241 38.8909 117.963 37.1817 115.469 37.1817C112.373 37.1817 109.546 39.6218 108.761 42.9864C107.933 46.5229 109.782 49.0705 113.158 49.0705C114.845 49.0705 116.382 48.5868 118.006 47.5441L118.328 46.1682C116.544 47.3614 115.157 47.8774 113.598 47.8774C110.954 47.8774 109.105 45.6415 110.148 42.7069H119.338M110.545 41.718C111.47 39.6326 113.276 38.3857 115.189 38.3857C117.103 38.3857 118.178 39.4821 118.102 41.718H110.545Z" fill="black"/>
<path d="M125.358 37.4184H128.626L128.39 38.4074H125.122L123.542 45.201C123.09 47.1574 122.951 47.8776 124.66 47.8776C125.358 47.8776 125.778 47.7808 126.917 47.3186L126.648 48.4903C126.38 48.6193 125.971 48.7483 125.498 48.8773C125.036 48.974 124.509 49.0815 124.101 49.0815C122.8 49.0815 121.564 48.372 121.972 46.6414L123.886 38.4181H120.747L120.973 37.4292H124.111L124.746 34.7096L125.853 33.6346H126.24L125.358 37.4292" fill="black"/>
<path d="M133.27 33.5701H132.023L132.506 31.4848H133.753L133.27 33.5701ZM129.712 48.845H128.465L131.13 37.4184H132.377L129.712 48.845Z" fill="black"/>
<path d="M143.643 39.0954C142.417 38.5364 141.762 38.3859 140.773 38.3859C138.171 38.3859 135.935 40.3208 135.269 43.1694C134.602 46.0502 135.914 47.8776 138.666 47.8776C139.73 47.8776 140.547 47.7271 141.966 47.2112L141.665 48.4796C140.235 48.9096 139.375 49.0601 138.279 49.0601C134.85 49.0601 133.108 46.7382 133.915 43.2769C134.753 39.6866 137.677 37.1712 140.998 37.1712C142.009 37.1712 142.751 37.3217 143.954 37.7302L143.643 39.0846" fill="black"/>
</g>
<path id="Vector_2" d="M3.21211 8.51351C3.21211 4.74048 11.0377 1.6769 20.6799 1.6769C25.5171 1.6769 29.9028 2.45086 33.0632 3.69779C30.1178 1.50491 24.2702 0 17.541 0C7.85585 0 -0.00195312 3.10657 -0.00195312 6.9226C-0.00195312 8.94349 2.20167 10.7601 5.70597 12.0286C4.12581 10.9966 3.22286 9.80344 3.22286 8.51351" fill="black"/>
<path id="Vector_3" d="M33.2461 4.12775C33.7835 4.27824 34.2995 4.42873 34.7832 4.60072C34.1275 4.20299 33.3643 3.83751 32.5151 3.50428C29.3548 2.25735 24.9798 1.4834 20.1318 1.4834C10.4896 1.4834 2.66406 4.54697 2.66406 8.32001C2.66406 9.60993 3.57776 10.8031 5.14717 11.8351C6.07162 12.437 7.21105 12.9745 8.54398 13.4367C8.03875 13.1357 7.59803 12.8133 7.2218 12.48C6.26511 11.6308 5.73839 10.7064 5.73839 9.71743C5.73839 5.94439 13.5639 2.88082 23.2061 2.88082C26.9469 2.88082 30.4082 3.34304 33.2461 4.12775Z" fill="black"/>
<path id="Vector_4" d="M35.5024 4.92329C35.7604 4.97703 35.9753 5.02003 36.2333 5.07378C35.8249 4.89104 35.4379 4.74055 34.9864 4.57931C31.8798 3.48287 27.7951 2.81641 23.3126 2.81641C13.5951 2.81641 5.70508 5.94448 5.70508 9.80351C5.70508 11.2009 6.74777 12.5124 8.54292 13.598C10.3488 14.7052 11.8645 15.2749 14.8528 15.7694C13.4661 15.3287 13.3264 15.2212 12.3267 14.6407C10.4563 13.5658 9.35987 12.2544 9.35987 10.8677C9.35987 7.12691 17.3037 4.08483 27.0964 4.08483C30.1384 4.08483 33.0085 4.38582 35.5131 4.90179" fill="black"/>
<g id="Vector_5">
<path d="M8.19983 58.4013H10.296C12.0911 58.4013 13.2305 59.6482 13.0478 61.4326C12.9081 62.8408 11.8869 64.4854 9.11353 64.4854H6.82391L8.18908 58.3905M8.88779 51.6614L5.82422 65.3776H9.13503C11.7794 65.3776 13.7143 63.7545 13.9615 61.4004C14.1442 59.6482 13.338 58.326 11.7794 57.7993C12.8436 57.1973 13.51 56.2299 13.6283 55.0797C13.8003 53.3921 12.8113 51.6614 10.0272 51.6614H8.88779ZM10.2315 52.5536C11.9514 52.5536 12.8866 53.4996 12.7253 55.069C12.5641 56.6384 11.4569 57.5198 9.59725 57.5198H8.38257L9.47901 52.5536H10.2315Z" fill="black"/>
<path d="M21.3463 59.9491C21.5828 57.638 20.6799 56.1653 18.9922 56.1653C16.8423 56.1653 15.1009 58.4765 14.7677 61.755C14.5097 64.3241 15.6599 65.5603 17.0681 65.5603C18.8847 65.5603 20.9808 63.5932 21.3463 59.9491ZM20.5294 59.9491C20.2606 62.6042 18.745 64.7326 17.1111 64.7326C15.9824 64.7326 15.3912 63.6039 15.5739 61.7765C15.8211 59.3794 16.9928 56.993 18.8632 56.993C20.0564 56.993 20.7014 58.1432 20.5186 59.9491H20.5294Z" fill="black"/>
<path d="M26.7751 57.0145H24.7112L23.561 61.3573C23.4965 61.6153 23.2063 62.787 23.1525 63.2922C23.0343 64.4961 23.6792 64.9046 24.2167 64.9046C24.6897 64.9046 25.2379 64.6251 25.7861 64.1199L25.7001 64.9476C25.0337 65.4098 24.6037 65.5711 24.0232 65.5711C22.83 65.5711 22.2066 64.5069 22.3356 63.2384C22.3893 62.7547 22.6043 61.8088 22.7655 61.2283L23.9372 57.0253H22.4001L22.5505 56.3588H24.077L24.6574 54.2842H25.4206L24.8402 56.3588H26.9148L26.7643 57.0253" fill="black"/>
<path d="M31.612 65.3777H30.8488L31.2251 63.7868L31.1928 63.7438C30.1394 64.9048 29.0644 65.5497 27.9895 65.5497C26.9898 65.5497 25.9686 64.7005 26.3771 62.8194L27.8175 56.3483H28.5807L27.1403 62.7764C26.8823 63.9588 27.3445 64.722 28.312 64.722C29.2257 64.722 30.1609 64.0986 31.4723 62.5721L32.8482 56.3375H33.6114L31.6013 65.367" fill="black"/>
<path d="M34.0414 65.3776H33.2782L36.3418 51.6614H37.105L34.0414 65.3776Z" fill="black"/>
<path d="M39.137 53.94H38.3738L38.7178 52.4566H39.481L39.137 53.94ZM36.6217 65.3774H35.8585L37.8686 56.3479H38.6318L36.6217 65.3774Z" fill="black"/>
<path d="M40.7815 57.842L40.8137 57.885C41.7059 56.9605 42.7701 56.1758 43.9525 56.1758C45.2532 56.1758 45.9197 57.5625 45.5649 59.1964L44.189 65.3881H43.4258L44.7695 59.3147C45.1242 57.7238 44.5545 57.0035 43.6516 57.0035C42.6949 57.0035 41.7489 57.67 40.5235 58.9707L39.0938 65.3881H38.3306L40.3407 56.3586H41.104L40.7815 57.842Z" fill="black"/>
<path d="M51.5306 65.3777H50.7674L51.1329 63.7868L51.1006 63.7438C50.0472 64.9048 48.9722 65.5497 47.8973 65.5497C46.8976 65.5497 45.8657 64.7005 46.2849 62.8194L47.7253 56.3483H48.4885L47.0588 62.7764C46.8009 63.9588 47.2631 64.722 48.2305 64.722C49.1442 64.722 50.0794 64.0986 51.3909 62.5721L52.7668 56.3375H53.53L51.5198 65.367" fill="black"/>
<path d="M55.5937 57.9175C56.8191 56.7673 57.679 56.1653 58.754 56.1653C59.8289 56.1653 60.3986 57.0468 60.3879 58.1002C61.5488 56.7888 62.5808 56.1653 63.559 56.1653C64.9241 56.1653 65.5798 57.4123 65.2896 58.6807L63.7954 65.3776H63.0322L64.4942 58.8419C64.7736 57.5735 64.0964 56.993 63.4192 56.993C62.5378 56.993 61.2801 57.7778 60.2911 58.9602L58.8615 65.3776H58.0983L59.5064 59.0892C59.8504 57.5843 59.3022 56.993 58.4745 56.993C57.5716 56.993 56.4644 57.681 55.3679 58.9602L53.9383 65.3776H53.1751L55.1852 56.3481H55.9484L55.5937 57.9175Z" fill="black"/>
<path d="M77.2648 52.5966H73.7713L70.912 65.3776H70.095L72.9543 52.5966H69.4608L69.6543 51.6614H77.4691L77.2648 52.5966Z" fill="black"/>
<path d="M80.3718 59.9491C80.6083 57.638 79.7053 56.1653 78.0177 56.1653C75.8678 56.1653 74.1264 58.4765 73.7932 61.755C73.5244 64.3241 74.6854 65.5603 76.0935 65.5603C77.9102 65.5603 79.9956 63.5932 80.3718 59.9491ZM79.5548 59.9491C79.2861 62.6042 77.7705 64.7326 76.1365 64.7326C75.0079 64.7326 74.4166 63.6039 74.5994 61.7765C74.8466 59.3794 76.0183 56.993 77.8887 56.993C79.0819 56.993 79.7268 58.1432 79.5441 59.9491H79.5548Z" fill="black"/>
<path d="M84.596 60.7552L86.4771 65.3775H85.5849L83.994 61.3572L80.3822 65.3775H79.447L83.7253 60.637L82.0376 56.348H82.8438L84.3165 59.9705L87.595 56.348H88.498L84.596 60.7552Z" fill="black"/>
<path d="M91.0028 53.94H90.2396L90.5836 52.4566H91.3468L91.0028 53.94ZM88.4875 65.3774H87.7243L89.7344 56.3479H90.4976L88.4875 65.3774Z" fill="black"/>
<path d="M92.6577 57.842L92.69 57.885C93.5822 56.9605 94.6464 56.1758 95.8288 56.1758C97.1295 56.1758 97.796 57.5625 97.4412 59.1964L96.0653 65.3881H95.3021L96.6458 59.3147C97.0005 57.7238 96.4308 57.0035 95.5278 57.0035C94.5712 57.0035 93.6252 57.67 92.3998 58.9707L90.9701 65.3881H90.2069L92.217 56.3586H92.9802L92.6577 57.842Z" fill="black"/>
<path d="M109.438 52.5966H105.933L103.074 65.3776H102.257L105.116 52.5966H101.623L101.816 51.6614H109.631L109.438 52.5966Z" fill="black"/>
<path d="M105.633 69.9997H104.784L107.428 65.2592L106.869 56.348H107.632L108.073 64.0446H108.105L112.362 56.348H113.168L105.633 69.9997Z" fill="black"/>
<path d="M115.543 54.5209H114.78L114.135 57.4125C113.232 58.1112 112.254 59.4226 112.189 59.9816C112.189 60.0784 112.221 60.1643 112.275 60.1643C112.469 60.1643 112.92 59.1432 113.973 58.1757L111.361 69.8173H112.125L113.103 65.496C113.447 65.539 113.629 65.5605 114.188 65.5605C117.994 65.5605 119.499 62.5507 119.735 60.2503C119.982 57.8532 118.886 56.1656 117.016 56.1656C116.392 56.1656 115.779 56.3698 115.027 56.832L115.543 54.5209ZM114.866 57.5522C115.543 57.176 116.134 56.9933 116.747 56.9933C118.252 56.9933 119.133 58.2402 118.929 60.2718C118.692 62.6045 117.263 65.3778 113.253 64.8403L114.876 57.563L114.866 57.5522Z" fill="black"/>
<path d="M126.239 63.6039C125.4 64.3241 124.497 64.7326 123.702 64.7326C121.896 64.7326 121.24 62.8622 121.412 61.2498C121.434 61.0456 121.466 60.8521 121.509 60.6693H127.002C127.034 60.4651 127.077 60.2716 127.109 59.9814C127.357 57.5843 126.389 56.1653 124.734 56.1653C122.702 56.1653 120.907 58.3797 120.617 61.2068C120.348 63.8189 121.541 65.5496 123.616 65.5496C124.519 65.5496 125.422 65.1518 126.163 64.5499L126.26 63.6039M121.692 59.8846C122.057 58.2937 123.39 56.993 124.605 56.993C125.819 56.993 126.593 58.0142 126.335 59.8846H121.692Z" fill="black"/>
<path d="M136.892 51.4893H136.161L129.163 65.3775H129.991L132.506 60.4327H136.892L137.354 65.3775H138.182L136.881 51.4893M136.172 53.1769H136.204L136.827 59.5083H133L136.172 53.1769Z" fill="black"/>
</g>
<g id="Vector_6">
<path d="M79.6411 13.8237H71.5575L67.9672 30.0123H66.0861L69.6871 13.8237H61.6036L61.8508 12.652H79.8775L79.6411 13.8237Z" fill="black"/>
<path d="M99.5493 19.4454C99.5493 15.0919 95.916 12.4153 90.0361 12.4153C80.5659 12.4153 77.0401 18.8864 77.0401 23.0357C77.0401 27.5397 80.4369 30.2378 86.6715 30.2378C94.3036 30.2378 99.5386 25.25 99.5386 19.4454M97.4747 19.1659C97.4747 24.4116 93.5941 29.0661 86.7253 29.0661C81.9311 29.0661 79.1255 27.0344 79.1255 23.4119C79.1255 19.7894 81.5978 13.587 90.0361 13.587C94.5938 13.587 97.4747 15.7261 97.4747 19.1659Z" fill="black"/>
<path d="M112.459 20.9505L122.016 30.0123H119.78L111.105 21.8965L98.9474 30.0123H96.432L110.105 20.9505L101.301 12.652H103.548L111.503 20.0046L122.499 12.652H124.972L112.459 20.9505Z" fill="black"/>
<path d="M127.584 13.071C128.745 13.071 129.68 14.0062 129.68 15.1671C129.68 16.328 128.745 17.2632 127.584 17.2632C126.423 17.2632 125.488 16.3173 125.488 15.1671C125.488 14.0169 126.423 13.071 127.584 13.071ZM127.584 12.6625C126.197 12.6625 125.08 13.7804 125.08 15.1671C125.08 16.5538 126.197 17.6825 127.584 17.6825C128.971 17.6825 130.1 16.5538 130.1 15.1671C130.1 13.7804 128.971 12.6625 127.584 12.6625ZM126.488 16.5645H126.928V15.4143H127.186C127.52 15.4143 127.649 15.5326 127.993 16.1346L128.229 16.5538H128.756L128.433 16.0271C128.208 15.6616 128.036 15.4358 127.81 15.3498C128.261 15.3068 128.584 14.9951 128.584 14.5544C128.584 14.2642 128.358 13.8449 127.692 13.8449H126.498V16.543L126.488 16.5645ZM126.928 15.0381V14.2319H127.627C127.917 14.2319 128.111 14.3932 128.111 14.6296C128.111 14.9091 127.885 15.0381 127.552 15.0381H126.928Z" fill="black"/>
<path d="M18.8969 18.4459H25.2283C30.6675 18.4459 34.4835 20.5206 34.4835 23.4767C34.4835 25.8093 31.9252 28.5504 23.5514 28.5504H16.6395L18.8969 18.4459ZM18.8969 7.29883L13.877 30.0123H23.8631C31.8714 30.0123 37.2031 27.3142 37.2031 23.4122C37.2031 20.5206 34.376 18.3169 29.5066 17.457C32.5486 16.4573 34.2685 14.8556 34.2685 12.9638C34.2685 10.1689 30.7642 7.29883 22.3475 7.29883H18.8969ZM20.9823 8.76074H23.2397C28.4209 8.76074 31.5489 10.3302 31.5489 12.9315C31.5489 15.5329 28.4639 16.9948 22.8742 16.9948H19.2086L20.993 8.76074" fill="black"/>
<path d="M61.9372 19.4454C61.9372 15.0919 58.2932 12.4153 52.4132 12.4153C42.943 12.4153 39.4172 18.8864 39.4172 23.0357C39.4172 27.5397 42.8141 30.2485 49.0487 30.2485C56.6808 30.2485 61.9265 25.2608 61.9265 19.4561M59.8518 19.1659C59.8518 24.4116 55.9713 29.0768 49.0917 29.0768C44.2975 29.0768 41.4919 27.0344 41.4919 23.4119C41.4919 19.7894 43.9642 13.5977 52.4025 13.5977C56.9602 13.5977 59.8411 15.7368 59.8411 19.1659" fill="black"/>
</g>
</g>
</g>
</g>
<defs>
<clipPath id="clip0_2003_38960">
<rect width="143.967" height="70" fill="white"/>
</clipPath>
</defs>
</svg>
