<svg width="67" height="80" viewBox="0 0 67 80" fill="none" xmlns="http://www.w3.org/2000/svg">
<g id="Logos">
<g id="Cincinnati dental society">
<g id="Variant=White" clip-path="url(#clip0_2003_38960)">
<path id="Vector" d="M33.5768 72.5216C33.2078 72.0873 32.8793 71.7065 32.5577 71.3213C31.9212 70.5595 31.2872 69.7952 30.6541 69.0301C29.6062 67.7621 28.5617 66.4925 27.5147 65.2237C26.7969 64.3544 26.0817 63.4834 25.3597 62.6175C24.173 61.1947 22.977 59.7795 21.7945 58.3524C20.9811 57.3705 20.1889 56.3709 19.3763 55.3882C18.7533 54.634 18.1075 53.8985 17.4811 53.1469C16.826 52.3605 16.187 51.5624 15.5344 50.7752C14.7573 49.8373 13.9702 48.9088 13.1948 47.9701C12.2689 46.8503 11.353 45.722 10.4287 44.6005C9.78798 43.8235 9.12692 43.0634 8.50395 42.2728C8.27034 41.9757 8.02826 41.8572 7.64737 41.8598C5.31123 41.8767 2.97594 41.8682 0.639803 41.8682C0.4629 41.8682 0.285997 41.8682 0.0743905 41.8682C0.0473048 41.6168 0.00413708 41.3993 0.00329066 41.1809C-0.000941476 38.2362 -9.50496e-05 35.2915 -9.50496e-05 32.3468C-9.50496e-05 32.0387 -0.00602004 31.7297 0.00329066 31.4225C0.00667636 31.293 0.0422263 31.1643 0.0718512 30.9815C0.297847 30.9815 0.502682 30.9815 0.707518 30.9815C2.96917 30.984 5.22997 30.9823 7.49163 30.9959C7.80226 30.9976 8.00456 30.8858 8.19416 30.6471C8.76465 29.9268 9.35715 29.2235 9.9378 28.5116C10.631 27.6618 11.3175 26.8061 12.0141 25.9588C12.8114 24.9888 13.6248 24.0323 14.4171 23.0581C15.2254 22.0644 16.0075 21.0495 16.8167 20.0567C17.9594 18.6558 19.1198 17.2694 20.2667 15.8711C21.5702 14.2815 22.8661 12.6851 24.1671 11.093C25.4977 9.46448 26.8299 7.83596 28.1639 6.20997C28.9147 5.29498 29.6697 4.38254 30.4264 3.47178C30.7447 3.08835 31.1052 2.73539 31.3871 2.32657C31.8831 1.60795 32.4544 0.95197 33.0114 0.284139C33.0926 0.1868 33.1968 0.108082 33.3144 -0.00195312C33.7063 0.455964 34.0745 0.872406 34.4275 1.30239C34.9065 1.88642 35.3746 2.48062 35.8461 3.07057C36.734 4.18109 37.6185 5.29498 38.5106 6.40296C39.2546 7.32641 40.0147 8.23716 40.7553 9.16315C41.7533 10.4108 42.7343 11.6728 43.7322 12.9204C44.1851 13.4867 44.6684 14.0293 45.1271 14.5913C46.0633 15.7407 46.991 16.8978 47.9246 18.0489C48.9521 19.316 49.9856 20.5789 51.0106 21.8477C52.1889 23.3069 53.3586 24.7746 54.5369 26.2339C55.5323 27.4671 56.537 28.6919 57.5315 29.9251C57.8091 30.2688 58.069 30.6277 58.3509 30.9984H66.2743V41.8674H65.6733C63.382 41.8674 61.0899 41.8945 58.8003 41.8488C58.2146 41.8369 57.9073 42.1052 57.6145 42.5056C57.4943 42.6706 57.3927 42.8509 57.264 43.0084C56.5657 43.8616 55.8564 44.7063 55.1607 45.5612C54.5758 46.2807 54.0019 47.0094 53.4255 47.7357C52.8152 48.5042 52.2075 49.2745 51.5989 50.0439C50.9023 50.9233 50.2133 51.8078 49.5065 52.6788C48.8785 53.4524 48.2217 54.2032 47.5928 54.9768C47.145 55.5279 46.7311 56.106 46.2867 56.6604C45.9118 57.1293 45.4894 57.5618 45.1322 58.0434C44.2138 59.2843 43.21 60.4532 42.2341 61.6475C41.6365 62.3788 41.0499 63.1228 40.4532 63.8567C39.3875 65.1687 38.365 66.5145 37.3121 67.8366C36.3133 69.091 35.2967 70.331 34.2912 71.5795C34.0601 71.8673 33.8426 72.1661 33.5751 72.5182L33.5768 72.5216ZM64.639 33.1035C64.523 33.0908 64.4527 33.0755 64.3816 33.0755C61.5546 33.0739 58.7284 33.0671 55.9013 33.0849C55.6101 33.0866 55.44 33.0044 55.269 32.792C54.266 31.5427 53.2503 30.3035 52.2439 29.0567C50.6966 27.1413 49.1527 25.2216 47.6063 23.3044C46.0591 21.3864 44.5118 19.4684 42.9628 17.5512C41.8066 16.1191 40.647 14.6903 39.4933 13.2565C38.3481 11.8345 37.2097 10.4066 36.0644 8.98456C35.1359 7.83172 34.2006 6.68397 33.2594 5.52352C32.424 6.55193 31.5979 7.57695 30.7633 8.59605C28.9959 10.7553 27.2227 12.9094 25.4562 15.0687C23.9529 16.9063 22.4581 18.7498 20.9557 20.5874C19.4161 22.4715 17.8705 24.3514 16.3309 26.2356C14.8843 28.0046 13.4429 29.777 11.9988 31.5486C11.6992 31.9168 11.3945 32.2808 11.1016 32.654C10.8807 32.935 10.6412 33.0874 10.2442 33.084C7.55172 33.062 4.85839 33.0722 2.16591 33.073C2.00848 33.073 1.85104 33.0849 1.69614 33.0908V40.0332C1.88574 40.0332 2.04572 40.0332 2.20569 40.0332C5.07677 40.0332 7.9487 40.0357 10.8198 40.0298C11.0729 40.0298 11.2591 40.078 11.4326 40.2913C12.6481 41.7878 13.8788 43.2733 15.1044 44.7613C15.8399 45.6543 16.5763 46.5464 17.3153 47.4369C17.3686 47.5012 17.4448 47.5478 17.4591 47.5604C17.6479 47.4377 17.7986 47.3336 17.9543 47.2396C18.1067 47.1482 18.2734 47.078 18.419 46.9764C18.6094 46.8444 18.6154 46.7453 18.4334 46.593C18.1947 46.3932 17.923 46.2324 17.697 46.02C17.0681 45.4308 16.4654 44.8146 15.7604 44.3119C15.6715 44.2484 15.6317 44.1163 15.5191 43.9344H16.4062C16.1099 43.5797 15.8823 43.3055 15.6656 43.0456C15.7638 42.8712 15.8382 42.74 15.911 42.6097C15.509 42.3676 13.3963 40.3396 13.2253 40.0382C13.5597 39.9815 13.8398 40.023 14.0464 40.3184C14.131 40.4395 14.23 40.552 14.3341 40.657C14.732 41.0548 15.0866 41.5187 15.5454 41.8284C16.451 42.4404 17.4752 42.7502 18.5849 42.5987C19.229 42.5107 19.8672 42.3752 20.5046 42.2398C21.7336 41.9783 22.7637 42.6266 23.0219 43.8345C23.0879 44.1417 22.8492 44.5404 22.4564 44.3855C22.3456 44.3423 22.2355 44.2983 22.123 44.2602C21.6295 44.0901 21.1267 43.9724 20.5994 44.0461C19.7504 44.1646 18.9015 44.2856 18.0516 44.4033C17.8019 44.438 17.5514 44.46 17.3026 44.4972C17.1925 44.5133 17.0867 44.5539 16.925 44.5971C17.0232 44.7385 17.0732 44.8485 17.1561 44.9221C17.6115 45.325 18.044 45.7652 18.5434 46.1046C19.1672 46.5278 19.9045 46.6844 20.6282 46.4432C21.4839 46.1588 22.3159 45.7931 23.1378 45.419C23.5585 45.2277 23.9766 45.2514 24.4024 45.2819C24.5209 45.2903 24.6495 45.386 24.7426 45.474C24.9509 45.6712 24.9407 45.8938 24.7206 46.086C24.4718 46.3035 24.1984 46.4813 23.8547 46.5024C23.5433 46.5219 23.2318 46.5397 22.9203 46.5456C22.63 46.5507 22.3718 46.6175 22.128 46.7902C21.9367 46.9248 21.7192 47.0458 21.4949 47.1042C20.7983 47.2871 20.0915 47.3624 19.3873 47.1322C19.1528 47.0551 18.9616 47.0712 18.7914 47.3057C18.893 47.3734 18.9709 47.4411 19.0614 47.4817C19.8181 47.8254 20.5765 48.1318 21.4297 48.1868C22.3041 48.2435 23.0786 48.0869 23.7371 47.4851C23.8353 47.3954 23.9462 47.3184 24.0579 47.2447C24.5691 46.907 25.1049 47.001 25.6356 47.1796C25.7363 47.2134 25.8142 47.3294 25.8912 47.4166C26.0123 47.5537 25.9818 47.6857 25.8608 47.8101C25.6517 48.0243 25.3783 48.059 25.1168 48.0082C24.779 47.9422 24.5166 48.0344 24.2441 48.2249C23.6076 48.6701 22.9 48.9122 22.1128 48.8732C21.8013 48.858 21.4907 48.836 21.1792 48.8132C20.822 48.7869 20.508 48.8986 20.2413 49.128C20.1643 49.194 20.1305 49.31 20.0848 49.3896C20.5867 49.5843 21.0319 49.784 21.4941 49.9296C21.9173 50.0633 22.3557 50.1683 22.795 50.2309C23.0667 50.2699 23.3554 50.2242 23.6313 50.1835C24.0511 50.1217 24.3389 49.8204 24.6411 49.5614C25.0516 49.2093 25.4824 48.8986 26.0081 48.7471C26.3348 48.6532 26.6666 48.5745 26.9958 48.4881C27.2252 48.428 27.4038 48.5398 27.5663 48.671C27.8152 48.8724 27.8194 49.117 27.5519 49.2931C27.243 49.4954 26.9129 49.6714 26.5134 49.5902C26.1934 49.5258 25.953 49.6308 25.7347 49.8873C25.4443 50.2292 25.0812 50.4899 24.625 50.5881C23.8657 50.7515 23.1082 50.8404 22.3405 50.633C22.1568 50.5839 21.9604 50.5771 21.7691 50.5644C21.638 50.556 21.5381 50.6076 21.5313 50.7777C21.5795 50.7997 21.6303 50.8412 21.6837 50.8437C22.2161 50.87 22.6731 51.1341 23.1641 51.2949C24.2653 51.6538 25.3267 51.5742 26.2992 50.8784C26.7808 50.5339 27.2726 50.203 27.7542 49.8593C28.1385 49.5851 28.549 49.5589 28.9799 49.7129C29.2846 49.8221 29.3658 50.0015 29.1711 50.2538C29.023 50.4451 28.808 50.5974 28.5973 50.7244C28.45 50.8133 28.2629 50.8505 28.0877 50.8742C27.7915 50.9148 27.5689 51.0443 27.37 51.272C27.2396 51.421 27.0475 51.5327 26.8621 51.6123C26.3432 51.8357 25.7761 51.8713 25.2285 51.9796C24.9559 52.0338 24.6715 52.0194 24.3956 52.06C24.1222 52.0998 23.8387 52.1379 23.6101 52.4384C23.7786 52.4926 23.9089 52.5544 24.0452 52.5747C24.6902 52.6678 25.3343 52.771 25.9827 52.8303C27.039 52.9268 27.9845 52.6737 28.7293 51.862C28.9104 51.6648 29.1051 51.4811 29.2964 51.2932C29.6248 50.9707 29.9338 50.6321 30.4831 50.7337C30.5915 50.754 30.7794 50.5585 30.8648 50.4222C30.9444 50.2952 30.8132 50.1911 30.6973 50.1048C30.533 49.9821 30.3866 49.8348 30.2317 49.6985C29.6028 49.1483 29.2228 48.4213 28.8283 47.7077C28.7183 47.5088 28.6853 47.2676 28.5913 46.9646C28.5033 47.2727 28.4534 47.5046 28.3696 47.723C28.2976 47.9092 28.1614 48.0539 27.9447 48.0725C27.7271 48.0912 27.6146 47.9236 27.5469 47.7704C27.3725 47.3742 27.2616 46.9527 27.3716 46.5193C27.5816 45.6907 27.9447 44.9323 28.4483 44.2382C28.6032 44.0249 28.7369 43.7888 28.8351 43.545C29.1364 42.7942 29.2126 41.9977 29.2499 41.1979C29.2676 40.817 29.2533 40.4344 29.2533 40.0738C29.5385 39.9519 29.6384 40.0408 29.6392 40.282C29.6401 40.6181 29.6612 40.9499 29.7975 41.2723C30.2613 41.1107 30.3815 40.5182 30.9063 40.4657C31.0587 40.8305 30.9808 41.241 31.2559 41.5229C31.9542 41.285 32.2157 40.7755 32.1802 40.0306C32.6313 40.0306 33.074 40.0145 33.5159 40.0349C33.9602 40.0552 34.4105 39.9578 34.8625 40.0941C34.7652 40.2109 34.6602 40.2829 34.5476 40.3387C33.6318 40.7899 32.6864 41.1733 31.8755 41.8284C31.145 42.4192 30.4196 42.994 29.9499 43.8319C29.4564 44.7131 29.1085 45.612 29.2676 46.6582C29.3726 47.3488 29.4437 48.0319 29.8855 48.6159C30.153 48.9697 30.4679 49.2651 30.8174 49.6003C30.8589 49.4751 30.8852 49.4226 30.8919 49.3684C30.952 48.9139 30.9952 48.456 31.068 48.0031C31.2127 47.0983 31.5835 46.2942 32.2581 45.6661C32.7465 45.2116 33.2924 44.8282 33.9086 44.5472C34.3259 44.3567 34.7246 44.124 35.1215 43.892C35.6091 43.6085 36.0644 43.2606 36.5723 43.0228C37.2571 42.702 37.7683 42.2212 38.2034 41.6211C38.4344 41.3028 38.619 40.971 38.7095 40.591C38.7493 40.4217 38.7612 40.2465 38.7874 40.0603H40.0562C40.0037 40.4572 39.936 40.8204 39.9115 41.1869C39.8768 41.7201 39.9343 42.2449 40.0553 42.7722C40.1662 43.2564 40.3169 43.7185 40.5776 44.1324C40.8781 44.609 41.0804 45.1177 41.1015 45.6704C41.1202 46.1469 41.0169 46.6158 40.6267 46.962C40.3609 47.1973 40.151 47.2236 39.8725 47.0103C39.473 46.7056 39.3113 46.2849 39.3816 45.7948C39.4341 45.4291 39.5043 45.0618 39.6177 44.7114C39.7134 44.4143 39.688 44.1798 39.5094 43.9217C39.0701 43.2868 39.0346 42.5741 39.1818 41.842C39.214 41.6837 39.2597 41.539 39.1277 41.4239C38.8035 41.8386 38.4776 42.239 38.1704 42.6537C37.908 43.0084 37.8242 43.4028 37.9833 43.8311C38.1373 44.2475 38.2855 44.6665 38.4454 45.0804C38.6325 45.5637 38.8526 46.0352 39.0134 46.5261C39.1082 46.8156 39.1708 47.1381 39.1505 47.4394C39.1073 48.0869 39.0075 48.7302 38.9161 49.3735C38.8915 49.5436 38.9017 49.6884 39.082 49.7256C39.5077 49.8136 39.7836 50.1116 40.0426 50.4121C40.3973 50.8234 40.8154 51.1256 41.2877 51.3956C42.1096 51.8662 42.9061 51.7672 43.7212 51.4345C43.7661 51.4159 43.7932 51.3516 43.8753 51.2509C43.5722 51.1611 43.3149 51.0291 43.0525 51.0181C42.438 50.9936 42.0741 50.6457 41.7931 50.1607C41.595 49.8179 41.507 49.7544 41.1235 49.8136C40.7376 49.8729 40.388 49.7527 40.0477 49.6156C39.8361 49.5301 39.6778 49.3676 39.7007 49.0993C39.7235 48.8301 39.8725 48.6024 40.1391 48.5431C40.4405 48.4771 40.7452 48.4314 41.0516 48.5821C41.3521 48.7294 41.6094 48.9122 41.8083 49.183C42.4321 50.032 43.2938 50.5509 44.2892 50.8031C45.0374 50.9927 45.789 50.8073 46.5 50.5272C46.6668 50.4612 46.8005 50.3105 46.9503 50.1979C46.5568 49.4649 45.9609 49.1577 45.2143 49.1416C44.8927 49.1348 44.5676 49.2059 44.246 49.255C43.568 49.3583 42.9586 49.2271 42.543 48.6532C42.339 48.3722 42.1172 48.2664 41.7948 48.2901C41.6619 48.2994 41.5273 48.2926 41.3935 48.2901C41.1193 48.2833 40.9128 48.1453 40.7545 47.9354C40.5784 47.7018 40.5894 47.5664 40.7833 47.3404C41.3639 46.6641 42.3441 46.7453 42.8079 47.5046C42.9315 47.7069 43.0652 47.9049 43.2083 48.0937C43.4394 48.3984 43.7424 48.5829 44.119 48.6887C45.0763 48.9562 45.9685 48.8267 46.8081 48.3163C47.2017 48.0776 47.5792 47.8135 47.9669 47.5647C48.187 47.4233 48.4113 47.2896 48.655 47.1398C48.5848 47.0636 48.5535 47.0052 48.5061 46.9823C48.0913 46.786 47.6825 46.5718 47.2542 46.4102C46.6465 46.1808 46.0294 45.9531 45.3607 46.1952C45.2524 46.2341 45.1254 46.2206 45.0086 46.2409C44.6735 46.301 44.3306 46.3382 44.0073 46.4381C43.6349 46.5524 43.3014 46.4889 42.9781 46.3179C42.8833 46.2679 42.7495 46.141 42.7622 46.0724C42.7817 45.9658 42.8926 45.8473 42.9958 45.7897C43.3784 45.5756 43.8092 45.5383 44.2028 45.6924C44.5888 45.843 44.9468 45.8041 45.3345 45.7669C45.6985 45.7322 46.0895 45.7212 46.4349 45.8177C46.9029 45.9488 47.3448 45.981 47.7773 45.7728C48.176 45.5807 48.5679 45.3657 48.9352 45.1202C49.4642 44.7664 49.9704 44.377 50.4825 43.9978C50.54 43.9555 50.5756 43.8819 50.6814 43.7439C50.4723 43.7896 50.353 43.7955 50.2514 43.8413C49.5607 44.151 48.8709 44.4642 48.1861 44.7876C47.6749 45.0288 47.1382 45.0474 46.6304 44.8629C46.2241 44.7148 45.8796 44.7791 45.5182 44.9331C45.2456 45.0491 44.9858 45.2184 44.7014 45.2776C44.4551 45.3293 44.1698 45.3047 43.9286 45.2277C43.7991 45.1862 43.645 44.9636 43.6467 44.8239C43.6501 44.4515 43.8389 44.1053 44.1732 43.9547C44.7852 43.6804 45.4378 43.6136 46.0717 43.9056C46.6989 44.1942 47.3439 44.2543 48.0219 44.1646C48.9513 44.0419 49.7918 43.71 50.5798 43.2081C50.9768 42.955 51.4161 42.768 51.8325 42.5445C51.9942 42.4582 52.1457 42.3532 52.37 42.2153C51.6548 41.8454 51.0513 41.5711 50.3454 42.0401C49.6851 42.4785 48.9835 42.4861 48.3012 42.0544C48.1006 41.9275 47.9212 41.9419 47.7214 42.0612C47.2 42.3727 46.6702 42.6698 46.1454 42.9762C45.8898 43.1252 45.6502 43.1065 45.4056 42.9076C45.1745 42.7206 45.1356 42.5411 45.2287 42.2339C45.3734 41.7573 45.6697 41.4374 46.1462 41.2833C46.2588 41.2469 46.3688 41.1996 46.4755 41.1479C47.0595 40.8677 47.6444 40.8542 48.2318 41.1352C48.3656 41.1987 48.5052 41.2503 48.6373 41.3172C49.2408 41.6219 49.8756 41.5762 50.5003 41.445C50.7973 41.3832 51.0834 41.23 51.3518 41.0785C51.8681 40.7873 52.3768 40.4801 52.8728 40.1551C53.0962 40.0086 53.3332 39.9993 53.5567 40.0476C53.8335 40.106 54.0933 40.2405 54.3904 40.354C54.3642 40.7941 53.9274 40.8838 53.6862 41.131C53.4314 41.3917 53.125 41.6024 52.9176 41.9512C53.0819 42.0333 53.2224 42.1027 53.3789 42.1806C53.8403 41.6016 54.2931 41.0531 54.7231 40.4877C54.9508 40.1889 55.181 40.0171 55.6017 40.0205C58.4431 40.0442 61.2846 40.0332 64.126 40.0323C64.2987 40.0323 64.4714 40.0196 64.6381 40.0137V33.1018L64.639 33.1035ZM22.4641 52.9471C22.6706 52.3529 23.3063 52.3131 23.5771 51.8696C22.6012 51.3321 21.5237 51.2145 20.4699 50.9724C20.607 50.5272 21.1555 50.5746 21.2613 50.1048C20.7492 49.9474 20.2473 49.7806 19.7369 49.6427C19.5718 49.5978 19.4161 49.5885 19.3746 49.3413C19.7047 49.1052 20.0467 48.8606 20.4132 48.5982C20.3235 48.5152 20.271 48.434 20.1973 48.4035C19.6632 48.1817 19.1291 47.9591 18.5857 47.7602C18.2929 47.6536 17.9839 47.6332 17.631 47.7932C22.9304 54.1837 28.2062 60.5455 33.4955 66.9233C35.8097 64.0454 38.0967 61.2015 40.443 58.2838C40.256 58.3617 40.1383 58.3871 40.0494 58.4514C39.6787 58.7206 39.2521 58.8526 38.8145 58.9313C38.0993 59.06 37.4627 58.8425 36.9185 58.3803C36.5943 58.1052 36.618 58.0993 36.2981 58.3896C35.9705 58.6867 35.6497 59.0058 35.2764 59.2352C34.6213 59.6381 34.612 59.9022 35.1131 60.4989C35.1579 60.5522 35.2426 60.5717 35.2942 60.6217C35.3983 60.7224 35.5109 60.8206 35.5871 60.9408C35.841 61.3403 35.7894 61.766 35.6378 62.1808C35.2349 63.2828 34.8007 64.3713 34.2125 65.3904C34.1464 65.5047 34.0686 65.6173 33.9746 65.7087C33.6741 65.999 33.4109 66.0092 33.1299 65.7036C32.942 65.4988 32.7862 65.2575 32.6525 65.0121C32.1176 64.0311 31.7654 62.9747 31.4116 61.9192C31.2703 61.4986 31.4066 61.1659 31.7138 60.884C31.823 60.7842 31.9542 60.7088 32.0642 60.6098C32.4172 60.2915 32.3359 59.8692 31.8958 59.7117C31.8399 59.6914 31.7815 59.6813 31.7248 59.6635C30.6135 59.3088 29.7205 58.652 29.0289 57.7167C28.4356 56.9143 28.3281 55.9773 28.2672 55.02C28.2079 54.0949 28.549 53.306 29.051 52.5679C29.2084 52.336 29.4158 52.1388 29.5851 51.9145C29.6333 51.851 29.6291 51.7469 29.6485 51.6614C29.4581 51.7545 29.3345 51.8772 29.2245 52.0101C28.4517 52.9446 27.4334 53.2941 26.2569 53.234C25.7245 53.207 25.1929 53.135 24.6639 53.0648C24.0748 52.9869 23.4899 52.8802 22.8915 52.9708C22.7798 52.9877 22.6613 52.9598 22.4649 52.9471H22.4641ZM35.6429 44.807C35.6184 44.9247 35.5955 44.9822 35.5964 45.0389C35.5964 45.127 35.6074 45.2167 35.6243 45.303C35.7987 46.1808 35.6717 47.0103 35.2231 47.7847C35.1427 47.9236 35.0453 48.0708 34.9184 48.1614C34.474 48.4788 34.0144 48.7734 33.5582 49.0747C33.2382 49.2863 32.8971 49.4708 32.5983 49.7087C32.0905 50.1124 31.5928 50.5331 31.1171 50.9749C30.2478 51.7816 29.376 52.5848 28.9621 53.7546C28.5092 55.0327 28.6514 56.2279 29.3717 57.3629C29.8576 58.1281 30.5745 58.6215 31.3769 58.9957C31.6148 59.1065 31.8789 59.176 32.1387 59.2217C32.4688 59.2801 32.6059 59.1819 32.6796 58.8585C32.7939 58.3515 32.7092 57.853 32.5323 57.3781C32.3876 56.9905 32.1633 56.6316 32.0245 56.2422C31.8196 55.6692 31.6571 55.0877 31.9711 54.4825C32.1573 54.1228 32.4231 53.8638 32.7668 53.6716C33.4515 53.2874 34.1363 52.9048 34.8227 52.5239C35.3526 52.2302 35.9104 51.9763 36.4098 51.6385C37.0353 51.2153 37.6016 50.7227 37.9596 50.021C38.2922 49.3693 38.3693 48.6659 38.47 47.9642C38.4903 47.8228 38.4742 47.6595 38.4217 47.5266C38.1602 46.8596 37.8462 46.2265 37.2715 45.7567C36.7898 45.3631 36.2887 45.0135 35.6421 44.8062L35.6429 44.807ZM36.5257 56.4361C36.458 56.9262 36.5012 57.2148 36.822 57.6566C37.2207 58.2068 37.7497 58.6461 38.4624 58.5335C39.021 58.4455 39.5644 58.2034 40.0892 57.9723C40.4066 57.8318 40.6961 57.6194 40.9212 57.3223C41.3081 56.811 41.6339 56.2829 41.832 55.6624C42.0191 55.0759 42.1418 54.4994 42.0191 53.8883C41.8769 53.1824 41.4316 52.7059 40.8315 52.358C40.7215 52.2945 40.5751 52.2598 40.4481 52.2649C39.6203 52.3021 38.8272 52.4596 38.1695 53.0148C37.8072 53.3204 37.4467 53.6285 37.0929 53.9442C36.5731 54.4072 36.0577 54.8736 35.5481 55.3476C35.4212 55.4652 35.2984 55.6032 35.2206 55.7555C34.7466 56.6841 34.6788 57.6837 34.7398 58.7011C34.7449 58.7798 34.8033 58.8552 34.8397 58.9381C35.2079 58.8391 35.4635 58.6055 35.6929 58.36C35.9079 58.1306 36.0154 57.864 35.9222 57.5085C35.7547 56.8703 35.8825 56.2414 36.1432 55.6455C36.2083 55.4957 36.3345 55.373 36.4783 55.1757C36.7086 55.5676 36.8973 55.8893 37.1276 56.282C37.2207 56.1517 37.2681 56.078 37.3231 56.0103C37.6312 55.6311 37.924 55.2367 38.2558 54.8786C38.6833 54.4182 39.1911 54.0551 39.8065 53.8841C40.074 53.8096 40.3745 53.7351 40.6038 53.9654C40.9441 54.3073 41.1235 54.7017 40.9907 55.2121C40.6809 56.4048 39.8886 57.0523 38.7273 57.3494C38.1526 57.4966 37.6337 57.4408 37.1682 57.0912C36.9363 56.9177 36.756 56.6748 36.5249 56.4361H36.5257ZM35.5955 54.5392C35.6387 54.5494 35.6819 54.5595 35.725 54.5697C36.0467 54.2718 36.3768 53.9814 36.6891 53.675C37.3265 53.0504 37.9985 52.4723 38.8272 52.1168C39.0947 52.0016 39.3841 51.9043 39.6719 51.8764C40.0528 51.8391 40.4422 51.8798 40.8273 51.8815C40.9052 51.8815 40.9839 51.8552 41.0787 51.8383C41.0423 51.7663 41.0313 51.7206 41.0017 51.691C40.95 51.6385 40.8942 51.5827 40.829 51.553C40.2754 51.3017 39.8666 50.8844 39.4806 50.429C39.0743 49.9508 38.7239 49.9431 38.3591 50.4451C37.8301 51.1721 37.0835 51.6368 36.3751 52.1345C35.9857 52.4088 35.8283 52.7067 35.7894 53.1477C35.7589 53.4829 35.6548 53.8113 35.5981 54.1448C35.5761 54.2735 35.5947 54.408 35.5947 54.5409L35.5955 54.5392ZM42.383 55.7098C42.416 55.72 42.4499 55.731 42.4829 55.7412C43.7365 54.1795 44.99 52.617 46.2647 51.0291C45.9008 51.0122 45.2744 51.1925 44.8741 51.4202C43.9836 51.9255 43.0331 52.1481 42.0097 52.0609C41.9361 52.055 41.8582 52.088 41.7795 52.1032C42.6843 53.2053 42.8883 54.3936 42.383 55.709V55.7098ZM40.4455 55.0945C40.4599 54.8152 40.3668 54.5968 40.1188 54.4571C39.9021 54.3344 39.7219 54.4343 39.5416 54.5485C38.7976 55.0209 38.1289 55.5702 37.676 56.3455C37.5093 56.6308 37.6058 56.9592 37.9156 57.0506C38.0519 57.0912 38.2135 57.0912 38.3549 57.0633C38.8086 56.9744 39.2512 56.8288 39.6237 56.552C40.1061 56.1923 40.3914 55.7022 40.4464 55.0945H40.4455ZM51.3611 43.8302C50.9937 44.1163 50.5671 44.2458 50.3005 44.6166C50.5375 44.7461 50.722 44.846 50.9116 44.9492C50.86 45.044 50.8481 45.094 50.8168 45.1177C50.2607 45.5349 49.7046 45.9531 49.1426 46.3619C49.0088 46.4592 48.8734 46.5346 48.9242 46.7106C49.1739 46.7648 49.3914 46.8114 49.609 46.8579C49.9094 46.4948 50.215 46.1325 50.5121 45.7643C50.8185 45.3843 51.1148 44.9966 51.4186 44.614C51.7132 44.2433 52.0187 43.881 52.3065 43.5044C52.5943 43.1277 52.9447 42.7976 53.2308 42.3583C52.9075 42.3837 51.8131 42.8391 51.3534 43.1294C51.2129 43.2183 51.0944 43.3435 50.9472 43.468C51.0987 43.6 51.2079 43.6948 51.3611 43.8286V43.8302ZM29.282 43.7109C29.3083 43.7244 29.3345 43.738 29.3607 43.7515C29.4192 43.6559 29.475 43.5585 29.5377 43.4663C29.6866 43.2479 29.8356 43.0287 29.9905 42.8145C30.1708 42.5648 30.3663 42.3261 30.539 42.0722C30.7294 41.7904 30.6837 41.5254 30.412 41.2537C29.5842 41.8919 29.536 42.8475 29.2812 43.7109H29.282ZM40.2576 44.5396C40.0291 44.6386 39.9411 44.7986 39.9098 44.9958C39.8683 45.2573 39.8344 45.5197 39.7946 45.7821C39.7439 46.1131 39.9081 46.4432 40.2128 46.6167C40.6783 46.1359 40.7012 45.408 40.2576 44.5396ZM21.7708 43.6085C21.5838 43.0989 21.2003 42.9271 20.7611 42.9009C20.4267 42.8806 20.0856 42.9457 19.7487 42.9821C19.6776 42.9897 19.6108 43.038 19.5151 43.0786C20.1965 43.6542 21.004 43.4341 21.77 43.6085H21.7708ZM29.1855 44.0867C28.555 44.3923 28.1859 45.4986 28.494 46.0022C28.5211 45.9912 28.566 45.9869 28.5727 45.9692C28.7936 45.3521 28.8004 44.6665 29.1864 44.0867H29.1855ZM41.8269 47.9354C41.8599 47.9286 41.9319 47.9168 42.003 47.899C42.2628 47.8347 42.3483 47.7382 42.3085 47.5579C42.2704 47.3869 42.0707 47.2574 41.8709 47.2803C41.8134 47.2871 41.755 47.3006 41.7 47.3184C41.5061 47.3793 41.2861 47.4242 41.2547 47.673C41.2344 47.8364 41.4655 47.9422 41.8278 47.9354H41.8269ZM47.6943 48.1682C47.9652 48.2985 48.1336 48.3798 48.3452 48.4814C48.5306 48.0912 48.9361 47.8838 49.0224 47.4064C48.6119 47.6417 48.2014 47.877 47.6943 48.1682ZM45.6866 44.1925C45.1221 44.0664 44.7539 44.2577 44.3967 44.471C44.3374 44.5065 44.3256 44.62 44.2917 44.697C44.3797 44.73 44.4813 44.8087 44.5541 44.7876C44.852 44.7021 45.1458 44.5971 45.431 44.4761C45.5165 44.4397 45.5698 44.3262 45.6866 44.1925ZM22.9161 46.0005C22.9812 46.0792 23.0092 46.1461 23.0549 46.163C23.3951 46.2849 23.7219 46.1782 24.0418 46.0724C24.0841 46.0589 24.1281 45.9378 24.1112 45.8871C24.0884 45.8193 24.0096 45.7271 23.9487 45.722C23.5924 45.6924 23.2436 45.722 22.9152 45.9996L22.9161 46.0005ZM28.1173 46.1968C27.6806 46.516 27.607 47.0991 27.9379 47.5401C28.1893 47.1076 28.097 46.6658 28.1173 46.1968ZM41.1041 49.343C40.9263 48.9012 40.6597 48.8233 40.2695 49.0535C40.4455 49.4057 40.7621 49.321 41.1041 49.343ZM25.3876 47.6468C25.1455 47.2997 24.8315 47.3996 24.5344 47.3793C24.6385 47.7441 24.8874 47.8271 25.3876 47.6468ZM47.1222 49.7882C47.5183 49.635 47.5513 49.591 47.5242 49.255C47.3092 49.3735 47.1586 49.5216 47.1222 49.7882Z" fill="white"/>
<path id="Vector_2" d="M15.4086 53.8994C15.8318 54.4064 16.2076 54.8652 16.5944 55.3138C16.7654 55.5127 16.7696 55.6642 16.6156 55.8995C16.3168 56.3549 16.0823 56.8526 15.8123 57.3266C15.7099 57.506 15.5711 57.6643 15.4695 57.8429C15.3883 57.986 15.3366 58.1468 15.2359 58.3855C16.0417 57.7244 16.784 57.1158 17.5441 56.492C18.0325 57.0845 18.4997 57.6525 18.9847 58.2407C18.8061 58.5598 18.4929 58.7664 18.2128 58.9983C17.1167 59.904 16.0138 60.802 14.91 61.6992C14.3497 62.1546 13.7826 62.6032 13.1901 63.0781C12.8134 62.6269 12.4376 62.1775 12.0618 61.7272C12.0059 61.6603 11.9552 61.5884 11.8967 61.5232C11.7495 61.359 11.741 61.1998 11.8553 61.0035C12.2726 60.2874 12.6772 59.5645 13.0834 58.8425C13.1376 58.7469 13.174 58.6419 13.2189 58.5412L13.1385 58.4794C12.4063 59.0829 11.6741 59.6873 10.909 60.3187C10.4714 59.7778 10.0405 59.2471 9.58008 58.6783C11.5302 57.0794 13.4525 55.5025 15.4077 53.8994H15.4086Z" fill="white"/>
<path id="Vector_3" d="M1.10352 48.33C3.05114 46.7336 4.9793 45.1525 6.94555 43.54C7.1944 43.8608 7.40347 44.1418 7.62439 44.4127C8.36247 45.3167 9.10986 46.2131 9.84287 47.1213C9.9893 47.3033 10.1154 47.5132 10.2009 47.7298C10.3008 47.9846 10.3076 48.2589 10.0816 48.4722C9.8344 48.7066 9.59063 48.9453 9.3274 49.1603C8.29137 50.0033 7.24773 50.8371 6.20747 51.675C6.01279 51.8316 5.8325 52.0077 5.62851 52.1507C5.12066 52.5062 4.67882 52.4952 4.23021 52.0542C3.80785 51.6403 3.42865 51.1799 3.04691 50.727C2.42648 49.9915 1.81959 49.245 1.20763 48.5026C1.18054 48.4696 1.16277 48.4281 1.10436 48.33H1.10352ZM4.37834 50.2649C5.61158 49.256 6.83298 48.2563 8.09923 47.2195C8.01713 46.7429 7.62777 46.4738 7.29513 46.1894C6.02295 47.2338 4.78547 48.2496 3.55138 49.2627C3.85525 49.6318 4.12187 49.9543 4.37834 50.2649Z" fill="white"/>
<path id="Vector_4" d="M43.2553 64.4131C43.4644 64.5265 43.7208 64.6255 43.9307 64.7864C44.4818 65.2096 45.0116 65.6607 45.5517 66.0975C46.3456 66.7399 47.1362 67.3874 47.9394 68.018C48.6436 68.5707 48.5133 69.0176 48.1536 69.5526C47.5602 70.4337 46.8678 71.2505 46.1856 72.0682C45.9452 72.3568 45.6659 72.631 45.2537 72.7157C44.9549 72.7766 44.7044 72.736 44.4691 72.5489C44.1567 72.3018 43.8368 72.0648 43.527 71.8151C42.4326 70.9314 41.3373 70.0486 40.2539 69.1514C40.0787 69.0058 39.9263 68.801 39.8374 68.5927C39.7782 68.4522 39.8129 68.2423 39.8704 68.0883C40.0651 67.5686 40.4435 67.1631 40.777 66.7314C41.1206 66.2862 41.4693 65.8444 41.8316 65.4127C42.1245 65.0631 42.3877 64.6721 42.8592 64.5257C42.9709 64.491 43.0852 64.4613 43.2553 64.4131ZM41.8079 67.5677C43.1131 68.6207 44.3624 69.6271 45.6321 70.6513C45.8234 70.4176 46.0113 70.1925 46.1932 69.9631C46.3964 69.7058 46.3888 69.6364 46.1213 69.418C45.6507 69.0337 45.175 68.6545 44.7018 68.2728C44.0137 67.7175 43.3247 67.1614 42.5968 66.574C42.3352 66.9024 42.083 67.2215 41.8071 67.5677H41.8079Z" fill="white"/>
<path id="Vector_5" d="M20.0536 71.4446C20.2102 71.2313 20.3042 71.0569 20.4413 70.9291C20.6139 70.7674 20.6004 70.643 20.4582 70.4771C20.1882 70.1631 19.9309 69.8397 19.6279 69.4707C19.3849 69.5858 19.12 69.7119 18.8263 69.8516C18.569 69.7035 17.5939 68.5566 17.3789 68.097C19.7489 67.0432 22.1172 65.9893 24.4855 64.9355C24.946 65.4984 25.4022 66.0613 25.8652 66.6182C25.9904 66.7689 25.9947 66.8976 25.877 67.055C25.2972 67.8346 24.7149 68.6116 24.1495 69.4021C23.7669 69.9371 23.4182 70.4949 23.0423 71.0349C22.7495 71.4564 22.4346 71.8627 22.1358 72.28C21.9259 72.5737 21.7262 72.8742 21.49 73.217C20.9923 72.6033 20.531 72.0345 20.0528 71.4446H20.0536ZM23.0263 67.7956C22.9594 67.7499 22.9086 67.6974 22.8917 67.7067C22.1815 68.0995 21.4739 68.4973 20.746 68.9061C20.9669 69.177 21.1684 69.4241 21.4037 69.7128C21.9513 69.0653 22.4761 68.4465 23.0271 67.7956H23.0263Z" fill="white"/>
<path id="Vector_6" d="M8.47192 57.3414C7.55524 56.2266 6.65464 55.1305 5.7168 53.9895C5.84969 53.855 5.96903 53.7128 6.10954 53.5968C6.91026 52.9374 7.71436 52.2831 8.51932 51.6288C9.50456 50.8281 10.4915 50.03 11.5284 49.1895C12.5212 50.2915 13.3964 51.4765 14.374 52.5997C14.1074 52.9857 13.8484 53.3606 13.5589 53.7788C12.9478 53.199 12.4967 52.4854 11.9406 51.854C11.4632 52.2671 11.0146 52.6547 10.5617 53.0475C10.9689 53.5384 11.3371 53.9819 11.7484 54.4771C11.4107 54.7572 11.0882 55.0247 10.7607 55.2956C10.3442 54.8038 9.94385 54.3306 9.53757 53.8499C9.10843 54.1969 8.71061 54.5186 8.26877 54.8757C8.74616 55.4649 9.23201 56.0658 9.75933 56.7167C9.32934 56.9258 8.92306 57.123 8.47276 57.3422L8.47192 57.3414Z" fill="white"/>
<path id="Vector_7" d="M38.5813 69.5371C38.9851 69.7132 39.3837 69.8884 39.8425 70.089C39.2847 70.8034 38.7565 71.511 38.1386 72.2177C38.5551 72.6096 38.974 72.9711 39.4624 73.3376C39.7062 73.0515 39.9534 72.762 40.2005 72.4725C40.4011 72.2372 40.5873 71.9884 40.804 71.7683C41.1748 71.3908 41.5235 71.362 41.9323 71.6862C42.5705 72.1924 43.1943 72.7163 43.8249 73.2335C44.0484 73.4171 44.2431 73.644 44.2583 73.9284C44.2693 74.1366 44.1982 74.3863 44.0789 74.5573C43.6548 75.1633 43.1977 75.7465 42.744 76.3322C42.474 76.681 42.1871 77.0178 41.9247 77.3395C41.4752 77.1507 41.0715 76.9814 40.6 76.7834C41.1409 76.1062 41.6513 75.468 42.1922 74.7909C41.8646 74.3948 41.471 74.0519 41.0232 73.7743C40.8777 73.6846 40.7583 73.7506 40.6483 73.8937C40.3647 74.2644 40.06 74.6199 39.7595 74.9771C39.6842 75.0668 39.6004 75.1532 39.5065 75.2226C39.0807 75.5374 38.8471 75.5442 38.429 75.2226C37.8314 74.7613 37.2583 74.2686 36.6515 73.8209C35.987 73.3308 35.9912 72.7612 36.4187 72.1644C37.0527 71.2791 37.7755 70.4572 38.462 69.6091C38.4789 69.5879 38.5119 69.5786 38.5822 69.538L38.5813 69.5371Z" fill="white"/>
<path id="Vector_8" d="M55.5449 48.4716C56.0621 47.8334 56.5302 47.2553 57.0016 46.6738C58.085 47.1444 59.1448 47.6057 60.2062 48.067C60.323 47.8512 60.1461 47.7242 60.053 47.5938C59.623 46.9929 59.1752 46.4055 58.7368 45.8104C58.5802 45.598 58.4329 45.3779 58.2535 45.1206C58.7148 44.5391 59.1693 43.9669 59.6687 43.3389C59.8803 43.6859 60.064 43.9805 60.2409 44.2784C61.034 45.6174 61.8119 46.9658 62.6287 48.2896C62.8174 48.5952 63.1255 48.8347 63.404 49.0759C63.6689 49.3062 63.9669 49.4983 64.2547 49.7116C63.7536 50.321 63.2728 50.9059 62.7759 51.5094C62.3375 51.1708 61.9244 50.8391 61.497 50.5267C61.3218 50.3989 61.1271 50.2796 60.9231 50.211C59.3513 49.6803 57.7761 49.1623 56.2001 48.6443C56.0198 48.585 55.8319 48.5469 55.5449 48.4724V48.4716Z" fill="white"/>
<path id="Vector_9" d="M52.9154 53.9943C52.703 54.2313 52.5346 54.4386 52.345 54.624C52.1647 54.8001 52.2663 54.679 51.843 55.1869C51.4198 55.6947 51.4655 55.5187 51.4054 55.8488C51.8413 56.2017 52.3103 56.5801 52.7851 56.9635C53.166 56.4988 53.5435 56.0384 53.9422 55.5525C54.2663 55.82 54.5897 56.0866 54.9291 56.3668C54.5406 56.8476 54.1758 57.2987 53.7966 57.7685C54.2232 58.1164 54.6345 58.4515 55.0848 58.818C55.5631 58.2332 56.0438 57.644 56.5441 57.0321C56.8488 57.4494 57.1205 57.8218 57.3947 58.1968C56.936 58.7622 56.5001 59.2963 56.0667 59.8329C55.6418 60.3594 55.2186 60.8867 54.764 61.4521C52.8266 59.8947 50.8806 58.3297 48.8848 56.7248C49.7735 55.6143 50.6555 54.5114 51.5612 53.3789C52.0098 53.582 52.4347 53.7759 52.9163 53.9934L52.9154 53.9943Z" fill="white"/>
<path id="Vector_10" d="M46.1795 60.043C46.6509 60.2478 47.0682 60.4298 47.5253 60.6287C47.0242 61.2364 46.496 61.7875 46.0999 62.4494C46.5477 62.8116 46.959 63.1468 47.3729 63.4778C47.7775 63.8011 48.1787 64.1312 48.5952 64.4385C49.0048 64.7406 49.3138 65.1884 49.8089 65.3534C50.2897 64.7652 50.7366 64.2184 51.225 63.6208C51.4857 63.9822 51.7236 64.3123 51.9614 64.6433C52.0579 64.777 52.0054 64.8964 51.9157 65.0056C51.3528 65.6878 50.7942 66.3734 50.2237 67.0488C50.0324 67.2757 49.7979 67.4348 49.4991 67.5338C49.1953 67.6337 48.9507 67.5906 48.7162 67.4153C48.2998 67.1047 47.8876 66.789 47.4821 66.4648C46.463 65.6505 45.4498 64.8295 44.4324 64.0127C44.0981 63.7444 43.8848 63.4228 44.0194 62.9767C44.0727 62.7981 44.1489 62.6136 44.2615 62.4688C44.8836 61.6673 45.5192 60.8767 46.1812 60.0438L46.1795 60.043Z" fill="white"/>
<path id="Vector_11" d="M16.3501 66.928C15.9133 66.3948 15.485 65.8878 15.0762 65.3664C14.8976 65.1387 14.9281 65.0667 15.182 64.8602C16.571 63.7319 17.96 62.6045 19.3481 61.4745C19.448 61.3932 19.5394 61.301 19.6317 61.2172C19.3067 60.8388 19.0036 60.4859 18.6405 60.0635C19.1467 59.912 19.575 59.7774 20.0083 59.6623C20.0727 59.6454 20.1869 59.7004 20.2352 59.7579C21.0266 60.711 21.8112 61.67 22.5967 62.6273C22.634 62.673 22.6957 62.717 22.7025 62.767C22.7186 62.8923 22.7542 63.0455 22.7017 63.1445C22.5155 63.4949 22.2962 63.8267 22.0677 64.2008C21.7486 63.8115 21.443 63.4382 21.118 63.0421C19.5242 64.3413 17.9524 65.6228 16.3501 66.928Z" fill="white"/>
<path id="Vector_12" d="M24.7905 74.9903C25.251 75.5616 25.7114 76.1329 26.2007 76.739C25.8122 77.0522 25.3297 77.0996 24.9403 77.3899C24.0262 76.2904 23.129 75.2112 22.1895 74.0795C24.1286 72.4908 26.0661 70.9046 28.0493 69.2803C28.5436 69.8855 29.032 70.4839 29.5297 71.0942C27.9231 72.4146 26.3606 73.6986 24.7905 74.9894V74.9903Z" fill="white"/>
<path id="Vector_13" d="M54.1161 52.4467C53.8233 52.8191 53.5312 53.1916 53.2045 53.6072C53.0505 53.3278 52.91 53.0714 52.7678 52.8157C52.7026 52.6989 52.6129 52.5923 52.5714 52.4679C52.5392 52.3722 52.5189 52.2216 52.5705 52.1572C53.3848 51.1415 54.2109 50.136 55.0353 49.1287C55.0438 49.1177 55.0599 49.1135 55.0675 49.1084C55.5034 49.2523 55.9351 49.3945 56.4133 49.5519C56.2051 49.9591 55.842 50.2494 55.5601 50.6785C56.2957 51.3616 57.1032 51.9727 57.898 52.6016C58.6978 53.2347 59.4782 53.8941 60.3001 54.5695C59.8354 55.1578 59.369 55.7478 58.9111 56.3267C57.3021 55.0249 55.7142 53.74 54.1153 52.4467H54.1161Z" fill="white"/>
<path id="Vector_14" d="M46.916 59.1492C47.3883 58.5618 47.8293 58.0142 48.2906 57.4395C50.2763 59.035 52.2121 60.5907 54.1724 62.1651C53.7069 62.7525 53.2651 63.3103 52.8046 63.8926C50.8367 62.3073 48.8916 60.7405 46.916 59.1484V59.1492Z" fill="white"/>
<path id="Vector_15" d="M29.8519 12.397C29.906 12.1896 29.9162 12.0102 29.9966 11.8705C30.2768 11.3813 30.5705 10.8996 30.8794 10.4282C31.1875 9.95757 31.4914 9.47849 31.8486 9.04512C32.2803 8.52033 32.7653 8.04041 33.2621 7.50293C33.4128 7.61804 33.5567 7.69422 33.6557 7.81018C34.1864 8.42723 34.7137 9.04766 35.2241 9.68163C35.4747 9.99227 35.7066 10.3224 35.9106 10.666C36.1146 11.0088 36.2763 11.3762 36.4481 11.7376C36.559 11.9695 36.5463 12.193 36.3389 12.4139C35.7371 12.1803 35.2335 11.6572 34.4632 11.7334C34.4784 11.9374 34.4615 12.1168 34.5098 12.2768C34.6562 12.7584 34.8221 13.2349 34.9914 13.7089C35.0794 13.9535 35.2512 14.1135 35.4857 14.2506C35.9698 14.5342 36.4295 14.8601 36.8891 15.1826C37.5357 15.6362 38.1282 16.1517 38.609 16.784C38.8951 17.1607 39.182 17.5382 39.4614 17.9199C39.6924 18.2356 39.9675 18.4904 40.3069 18.6935C40.7234 18.9432 40.9925 19.3343 41.2253 19.7583C41.5393 20.3297 41.5275 20.9594 41.563 21.5722C41.6045 22.2824 41.574 22.9959 41.5723 23.7086C41.5707 24.3959 41.1948 24.6718 40.527 24.4822C40.4457 24.4594 40.3636 24.4399 40.1698 24.3908C40.2722 24.577 40.3289 24.6795 40.3857 24.7827C40.5287 25.04 40.6819 25.2923 40.8114 25.5564C40.8986 25.7333 40.9011 25.9212 40.7809 26.1319C40.6404 26.0329 40.5262 25.9516 40.3645 25.8374C40.2976 26.0498 40.2392 26.2377 40.169 26.4603C39.9624 26.3393 39.9607 26.1675 39.9853 25.9745C40.0623 25.3498 40.0242 25.2474 39.8236 24.616C39.7398 24.3527 39.6002 24.1978 39.3894 24.037C38.4414 23.3142 37.6542 22.4237 36.8975 21.5113C36.5827 21.1321 36.3694 20.7021 36.4726 20.1629C36.5361 19.8286 36.1527 19.3554 35.7345 19.1853C35.7599 19.4697 35.7794 19.7431 35.8099 20.0148C35.864 20.4998 35.8937 20.989 35.9902 21.4656C36.0934 21.9785 35.9749 22.4694 35.9258 22.9671C35.8928 23.3006 35.8971 23.3506 36.1569 23.5156C36.3948 23.6663 36.6284 23.8246 36.8603 23.9837C37.4536 24.3891 37.7558 25.0045 38.0114 25.6393C38.2569 26.2479 38.3729 26.8937 38.383 27.5472C38.3982 28.5138 38.0512 29.3822 37.5163 30.1652C37.055 30.8423 36.4625 31.4102 35.8403 31.9426C35.7506 32.0197 35.6533 32.0959 35.5466 32.1407C35.1293 32.3159 34.8636 32.6003 34.8559 33.0896H33.1733C33.2943 32.9634 33.3493 32.8856 33.4221 32.8331C34.0485 32.3845 34.6689 31.9266 35.3088 31.4983C35.9978 31.037 36.5632 30.4504 37.0287 29.78C37.606 28.9488 37.8667 27.9881 37.7456 26.9911C37.6018 25.8018 37.0592 24.7954 36.0333 24.1022C36.0122 24.0878 35.9783 24.0912 35.9233 24.0819C35.732 24.445 35.6753 24.8521 35.589 25.2516C35.4865 25.7282 35.3689 26.2022 35.2588 26.677C35.1751 27.041 34.9575 27.3169 34.69 27.5632C34.1737 28.0389 33.5888 28.4164 32.9769 28.7559C31.5879 29.5261 30.4156 30.5283 29.6411 31.9376C29.4583 32.2711 29.3381 32.6393 29.168 33.0413H28.661C28.7828 32.4598 29.0647 31.9604 29.3279 31.4475C29.7537 30.6155 30.4495 30.0323 31.1342 29.4474C31.4508 29.1774 31.5278 28.9116 31.4956 28.5222C31.4398 27.8553 31.1478 27.3423 30.6323 26.9369C30.3293 26.6982 30.0212 26.4646 29.7308 26.2106C28.7464 25.3541 28.0439 24.3248 27.696 23.045C27.5166 22.3848 27.3312 21.7288 27.2914 21.0474C27.2576 20.4592 27.2449 19.8616 27.3109 19.2784C27.4252 18.2712 27.8712 17.3816 28.462 16.5682C29.1189 15.6642 29.9297 14.9371 30.9751 14.508C31.1731 14.4267 31.3043 14.3167 31.3704 14.1237C31.5811 13.5083 31.7893 12.8921 31.995 12.2751C32.023 12.1921 32.045 12.1033 32.0467 12.0161C32.0509 11.7605 31.9138 11.6445 31.6759 11.7452C31.3492 11.8832 31.0352 12.0542 30.7288 12.2328C30.4723 12.3826 30.2099 12.4156 29.851 12.3919L29.8519 12.397ZM31.0106 26.3351C31.0309 26.2166 31.0665 26.1319 31.0546 26.0541C30.9522 25.3363 30.8176 24.6219 30.7398 23.9024C30.6704 23.2566 30.6433 22.604 30.6306 21.954C30.623 21.5858 30.6738 21.215 30.7135 20.8468C30.7525 20.4803 30.7694 20.1045 30.8676 19.7524C31.1672 18.6808 31.8147 17.9411 32.9193 17.6093C33.6896 17.3782 34.3904 17.4434 35.0252 17.9275C35.5416 18.3211 36.0164 18.7697 36.5276 19.1692C36.9077 19.4663 37.027 19.8658 37.0118 20.3051C36.9949 20.7901 37.1845 21.1617 37.5027 21.5011C37.8176 21.8372 38.1079 22.196 38.4253 22.5295C38.6699 22.7869 38.9163 23.0501 39.3022 23.2744C39.105 22.6497 38.6107 22.2443 38.5963 21.6425C38.8198 21.4969 38.984 21.5638 39.1177 21.7356C39.1897 21.8287 39.2421 21.937 39.3014 22.0395C39.6289 22.6049 39.9514 23.1728 40.2849 23.7349C40.428 23.9761 40.6142 24.0269 40.891 23.9752C41.1754 23.9219 41.1237 23.7154 41.1271 23.5283C41.1297 23.4242 41.1322 23.3201 41.1254 23.216C41.0772 22.5067 41.0374 21.7965 40.9748 21.0889C40.8952 20.1892 40.4999 19.4621 39.7974 18.8772C39.3674 18.5192 38.9848 18.0985 38.6056 17.6846C38.1858 17.2267 37.7998 16.7374 37.3859 16.2736C36.8324 15.6532 36.0824 15.2943 35.4036 14.8482C35.0667 14.6273 34.6494 14.4944 34.2491 14.4098C33.2342 14.1956 32.2718 14.5156 31.3424 14.8525C30.6458 15.1047 30.0406 15.5482 29.5116 16.0925C29.0275 16.5902 28.6584 17.1547 28.3435 17.7642C27.977 18.4743 27.8103 19.2429 27.7443 20.0275C27.663 21.0009 27.8662 21.9294 28.181 22.8596C28.6643 24.2884 29.5751 25.3524 30.7499 26.2344C30.8134 26.2817 30.9014 26.2953 31.0115 26.3368L31.0106 26.3351Z" fill="white"/>
<path id="Vector_16" d="M43.708 32.4394C43.8722 31.8596 44.0381 31.2806 44.1989 30.7008C44.27 30.4452 44.3301 30.1853 44.623 29.9754C44.8033 30.4232 44.9734 30.8473 45.1799 31.3602C45.3086 31.1723 45.3848 31.0724 45.4491 30.9658C45.9891 30.0762 46.2431 29.0901 46.4183 28.0786C46.4614 27.8297 46.4834 27.5775 46.723 27.3845C46.9075 27.6054 46.9354 27.8628 46.9566 28.1192C47.0235 28.9411 47.2478 29.719 47.599 30.4621C47.7294 30.7389 47.7996 30.7635 48.0231 30.6111C48.5775 30.2336 48.8238 30.2674 49.2606 30.7778C49.2877 30.8092 49.3291 30.8286 49.3892 30.8718C49.5077 30.7381 49.6279 30.6111 49.738 30.4757C50.0994 30.0313 50.5937 29.9585 51.022 30.3123C51.3377 30.573 51.4697 30.9514 51.4884 31.3382C51.4968 31.5168 51.3292 31.7038 51.2344 31.9011C51.3792 31.9231 51.5188 31.9442 51.6585 31.9654C52.1553 31.4347 52.6082 31.3306 53.0458 31.6471C53.48 31.962 53.6188 32.5748 53.3598 33.0666H47.6921C47.5669 32.3776 47.5787 31.6911 47.3349 31.0487C47.103 30.4384 46.9041 29.8155 46.6773 29.1578C46.3869 29.3999 46.3497 29.6893 46.2464 29.9416C46.1178 30.2556 45.9993 30.573 45.8749 30.8887C45.6853 31.3712 45.4779 31.8477 45.3137 32.3387C45.2417 32.5545 45.257 32.8 45.2282 33.07H42.9395V31.51C43.1087 31.4093 43.1748 31.5058 43.2222 31.626C43.2975 31.819 43.3618 32.017 43.4422 32.2075C43.4795 32.2955 43.5446 32.3708 43.5971 32.4521L43.708 32.4394Z" fill="white"/>
<path id="Vector_17" d="M22.3277 31.1696C22.9388 30.7379 23.1471 30.0219 23.7844 29.674C23.8767 29.9364 23.8098 30.1742 23.7895 30.4154C23.726 31.1806 23.6744 31.9475 23.8792 32.7482C23.9952 32.6873 24.0807 32.6441 24.1653 32.5992C24.4734 32.4359 24.5961 32.4833 24.6782 32.8091C24.6952 32.8769 24.6808 32.953 24.6808 33.0741H23.4035C23.4484 32.5374 23.2038 32.0668 23.3646 31.5497C23.4721 31.2043 23.3976 31.0308 23.1953 30.7633C22.9778 31.0266 22.7611 31.2839 22.5486 31.5454C22.4191 31.7046 22.3878 31.8865 22.4225 32.0897C22.4741 32.3952 22.5097 32.7042 22.5579 33.0504H21.9519C21.9299 32.9666 21.8673 32.8642 21.885 32.7787C22.0467 32.0101 21.8664 31.2754 21.6777 30.5433C21.4737 29.7544 21.2544 28.9689 21.0395 28.1826C21.0166 28.0988 20.9717 28.0201 20.9286 27.9193C20.8693 27.9549 20.7974 27.971 20.7788 28.0124C20.3056 29.0341 19.8248 30.0523 19.3771 31.0858C19.256 31.3651 19.2222 31.6876 19.1773 31.994C19.1333 32.2945 19.3559 32.6526 19.6395 32.7939C19.7173 32.8328 19.7969 32.8684 19.8714 32.9133C19.8875 32.9234 19.8832 32.9666 19.8875 32.9954C19.5853 33.0961 15.2956 33.1333 14.3975 33.0436C14.0158 31.9069 14.8538 31.4024 15.7171 31.8095C15.8119 31.399 15.8204 30.9394 16.2808 30.7278C16.682 30.5433 17.079 30.5534 17.4498 30.7726C18.1743 29.9127 18.4917 30.0557 19.1612 30.396C19.2137 30.3359 19.284 30.2783 19.3254 30.2047C19.7944 29.3642 20.2751 28.5288 20.5401 27.5926C20.5925 27.4081 20.6679 27.2287 20.7534 27.0568C20.7872 26.9891 20.9066 26.8926 20.9379 26.9079C21.0166 26.9468 21.1004 27.0331 21.1249 27.1169C21.3983 28.0412 21.6633 28.9681 21.9265 29.8949C22.0069 30.1793 22.0662 30.4705 22.1483 30.754C22.1838 30.8776 22.2515 30.9919 22.3311 31.1705L22.3277 31.1696Z" fill="white"/>
<path id="Vector_18" d="M32.0469 34.0611C32.2255 34.0695 32.3846 34.0772 32.5429 34.0848C32.7054 34.0915 32.884 34.1432 33.0287 34.0958C33.4384 33.962 33.6661 34.1982 33.9056 34.4547C34.7656 35.3781 35.629 36.2973 36.4932 37.2165C36.5803 37.3097 36.6836 37.3884 36.841 37.5297C36.869 37.258 36.9062 37.0608 36.9062 36.8636C36.9062 36.2423 36.8901 35.621 36.885 34.9998C36.8817 34.5757 36.6201 34.3971 36.2511 34.3277C36.1156 34.3023 35.9802 34.3057 35.9853 34.0898C36.3052 33.962 36.6218 34.1347 36.9367 34.1068C37.2363 34.0797 37.536 34.0611 37.8356 34.0391C37.8457 34.067 37.8559 34.0958 37.8661 34.1237C37.7823 34.1914 37.7061 34.2718 37.6138 34.3235C37.31 34.4919 37.2558 34.7848 37.2482 35.0827C37.2304 35.8513 37.2321 36.6198 37.2279 37.3884C37.2253 37.8327 37.2279 38.2771 37.2253 38.7215C37.2253 38.8095 37.2109 38.8967 37.2042 38.9805C37.0222 39.0651 36.9477 38.9204 36.863 38.8332C36.3763 38.333 35.8956 37.8277 35.414 37.3232C34.8088 36.6901 34.2053 36.0544 33.5984 35.423C33.5281 35.3502 33.4401 35.2952 33.3199 35.2004C33.2987 35.318 33.2725 35.3959 33.2733 35.4738C33.2801 36.2457 33.2886 37.0185 33.3038 37.7904C33.3064 37.9225 33.3394 38.0537 33.3639 38.1849C33.424 38.5124 33.6136 38.719 33.9454 38.7757C34.0935 38.8011 34.2535 38.7968 34.2205 39.0287H32.3118C32.3821 38.9229 32.4117 38.8197 32.4675 38.8036C32.8425 38.6944 32.9289 38.3872 32.9348 38.074C32.9542 37.0938 32.9559 36.1128 32.9356 35.1326C32.928 34.767 32.735 34.4911 32.3541 34.3759C32.2331 34.3395 32.0325 34.3751 32.0477 34.0611H32.0469Z" fill="white"/>
<path id="Vector_19" d="M19.2344 39.1301C17.9326 37.7708 16.7045 36.4884 15.4264 35.1545C15.3942 35.3026 15.3569 35.3906 15.3586 35.4786C15.3747 36.3234 15.3883 37.1681 15.4196 38.0128C15.4391 38.5283 15.5702 38.6578 16.0933 38.7916C16.1771 38.8127 16.2491 38.8804 16.3016 39.0108H14.3539C14.5063 38.8864 14.5816 38.8119 14.6688 38.7569C14.8592 38.6384 14.982 38.4758 14.9879 38.2507C15.0141 37.2714 15.0573 36.2912 15.0455 35.3127C15.0395 34.8472 14.866 34.4316 14.2981 34.3614C14.166 34.3453 14.0848 34.2615 14.1161 34.1074C14.3632 34.1074 14.6096 34.1074 14.8559 34.1074C15.0048 34.1074 15.1597 34.1294 15.3002 34.0956C15.5406 34.0372 15.6896 34.1379 15.8436 34.3021C16.7451 35.2679 17.6525 36.2286 18.5615 37.1876C18.658 37.29 18.7765 37.3712 18.961 37.527C18.9763 37.1664 18.9957 36.9074 18.9974 36.6492C19.0008 36.1592 19.0025 35.6691 18.989 35.179C18.9763 34.7126 18.779 34.3851 18.278 34.3021C18.1925 34.2877 18.1171 34.2166 17.9851 34.1421C18.3736 33.9635 18.6842 34.1565 18.9949 34.1396C19.3004 34.1227 19.6035 34.0617 20.0182 34.0059C19.9039 34.1633 19.8676 34.2725 19.799 34.2987C19.4181 34.4452 19.3783 34.7533 19.3715 35.0969C19.3462 36.3437 19.3131 37.5905 19.2818 38.8364C19.2801 38.8923 19.2649 38.9473 19.2344 39.1318V39.1301Z" fill="white"/>
<path id="Vector_20" d="M44.1856 37.5214C44.1856 36.6512 44.205 35.9089 44.1788 35.1674C44.161 34.6621 43.9393 34.4378 43.4441 34.2897C43.362 34.2651 43.2867 34.2161 43.1385 34.145C43.5431 33.9655 43.8597 34.1086 44.1712 34.1246C44.4844 34.1407 44.7925 33.9469 45.1691 34.1035C45.0582 34.2 44.9956 34.2812 44.9135 34.321C44.6367 34.4539 44.5411 34.6892 44.5216 34.9711C44.5131 35.0896 44.5216 35.2089 44.5174 35.3283C44.4894 36.2475 44.459 37.1667 44.4344 38.0868C44.4268 38.3822 44.4336 38.6776 44.4336 39.0593C44.2973 38.9543 44.1923 38.8926 44.1102 38.8079C43.4593 38.1359 42.8118 37.4604 42.1652 36.7841C41.6827 36.2796 41.2053 35.7701 40.7228 35.2656C40.6958 35.2377 40.6475 35.2301 40.5908 35.2055C40.4207 35.462 40.5426 35.7337 40.5409 35.9868C40.5366 36.6097 40.5705 37.2327 40.5925 37.8557C40.5967 37.9894 40.5942 38.1274 40.6306 38.2544C40.7169 38.5616 40.8862 38.7851 41.2476 38.791C41.3687 38.7927 41.3678 38.8088 41.4753 39.0119H39.5277C39.6555 38.9027 39.719 38.8282 39.7985 38.7842C40.0254 38.6598 40.1617 38.4812 40.1752 38.2197C40.1972 37.7905 40.2243 37.3614 40.2328 36.9322C40.2429 36.4413 40.2361 35.9504 40.2345 35.4603C40.2328 34.7874 40.0508 34.5352 39.4168 34.321C39.3779 34.3075 39.3449 34.277 39.2949 34.2448C39.3279 34.0959 39.427 34.073 39.5548 34.0747C39.8798 34.0781 40.2057 34.0857 40.5307 34.0688C40.7322 34.0586 40.8735 34.1399 40.9996 34.2753C41.6776 35.0041 42.3556 35.732 43.0327 36.4616C43.285 36.7333 43.5296 37.0126 43.7903 37.2767C43.8741 37.3622 43.9977 37.4079 44.1873 37.5239L44.1856 37.5214Z" fill="white"/>
<path id="Vector_21" d="M42.498 40.0353C42.641 40.0353 42.7418 40.0361 42.8433 40.0353C43.4858 40.0285 43.5137 40.0124 43.8201 40.5702C44.2366 41.3295 44.4253 42.1446 44.1756 43.0071C44.1282 43.1696 44.0292 43.3304 43.9149 43.4574C43.5594 43.8527 43.3961 43.8417 43.0202 43.4405C42.9915 43.41 42.9483 43.3931 42.8603 43.3372C42.851 43.4777 42.8442 43.5835 42.8357 43.6902C42.8002 44.176 42.7782 44.6635 42.724 45.1477C42.6952 45.4042 42.5733 45.6268 42.3279 45.7597C42.1044 45.8807 41.9394 45.8663 41.7701 45.6818C41.5229 45.4118 41.4366 45.0715 41.4933 44.7287C41.5745 44.2344 41.693 43.7435 41.8378 43.2636C41.9614 42.8539 42.1603 42.4679 42.2982 42.0616C42.4946 41.4852 42.597 40.8927 42.4988 40.2799C42.4895 40.2223 42.498 40.1622 42.498 40.0361V40.0353ZM43.6415 41.4006C43.4257 41.911 43.2327 42.4231 43.3063 42.991C43.3123 43.0376 43.4054 43.0731 43.4561 43.1129C43.9479 42.5526 44.0275 41.9524 43.6415 41.4014V41.4006ZM42.393 43.1975C42.0138 43.5403 41.9842 43.9178 41.8962 44.2632C41.8293 44.5264 41.9275 44.7516 42.0875 44.7888C42.2847 44.8345 42.4396 44.6839 42.4523 44.347C42.4658 43.9983 42.4193 43.647 42.3939 43.1967L42.393 43.1975Z" fill="white"/>
<path id="Vector_22" d="M49.2274 33.9647C49.5101 34.5564 49.7623 35.0718 50.0044 35.5915C50.3988 36.4371 50.7848 37.2878 51.1801 38.1334C51.3206 38.4338 51.4933 38.7064 51.8496 38.8003C51.9173 38.8181 51.9681 38.9002 52.0959 39.0153H49.7412C49.979 38.8173 50.1415 38.6818 50.3421 38.5151C50.2228 38.2028 50.1009 37.8887 49.9824 37.573C49.9045 37.3673 49.7547 37.27 49.5397 37.2692C49.1089 37.2683 48.6781 37.2666 48.2481 37.27C48.0568 37.2717 47.9027 37.3496 47.8172 37.5299C47.7224 37.7305 47.6149 37.9268 47.5421 38.1351C47.4313 38.4525 47.5066 38.593 47.8291 38.7149C47.9391 38.7563 48.0627 38.764 48.1702 38.8088C48.2252 38.8317 48.2591 38.9053 48.3463 39.0077H46.5078C46.5188 38.9544 46.5154 38.8892 46.5374 38.8782C46.8692 38.7191 47.0233 38.4237 47.1714 38.1097C47.7199 36.9458 48.2777 35.7871 48.8389 34.63C48.9396 34.4226 49.0716 34.2305 49.2291 33.9639L49.2274 33.9647ZM48.0915 36.862C48.7729 36.9526 49.3857 36.9306 49.676 36.8079C49.4034 36.289 49.2248 35.7261 48.8719 35.1446C48.5934 35.7574 48.3522 36.2873 48.0906 36.862H48.0915Z" fill="white"/>
<path id="Vector_23" d="M54.6187 39.0306C54.6305 38.8046 54.755 38.8114 54.8701 38.7792C55.2095 38.6844 55.3458 38.5354 55.3475 38.2316C55.3525 37.0584 55.3475 35.8853 55.3449 34.7121C55.3449 34.6698 55.3246 34.6266 55.3068 34.5564C54.8591 34.4472 54.4062 34.4793 53.9619 34.5995C53.7223 34.6639 53.6495 34.8983 53.57 35.1074C53.5217 35.2344 53.5725 35.418 53.3262 35.4688C53.3144 35.3723 53.2881 35.2801 53.2966 35.192C53.3186 34.9567 53.3592 34.724 53.3863 34.4887C53.4244 34.1602 53.4667 34.1069 53.801 34.1095C54.7211 34.1154 55.6412 34.1349 56.5612 34.145C57.0793 34.1501 57.5981 34.1459 58.1635 34.1459C58.2956 34.4675 58.3387 34.8255 58.2245 35.225C58.1695 35.1514 58.0941 35.0854 58.0645 35.0033C57.9426 34.6698 57.6912 34.5141 57.3569 34.4895C57.1216 34.4717 56.8837 34.4861 56.6476 34.4895C56.3903 34.4937 56.2819 34.6546 56.2531 34.8848C56.2404 34.9872 56.243 35.0922 56.243 35.1963C56.243 36.0427 56.2413 36.8891 56.243 37.7355C56.2447 38.4118 56.403 38.6099 57.0547 38.7944C57.125 38.8147 57.1757 38.9062 57.3036 39.0306H54.6178H54.6187Z" fill="white"/>
<path id="Vector_24" d="M8.48723 37.6876C8.48977 38.1955 7.81601 38.8108 7.11686 38.9945C5.80236 39.3407 4.58605 38.8954 4.02064 37.8603C3.5094 36.9241 3.75824 35.409 4.69101 34.6151C5.51881 33.91 6.86632 33.6891 7.95398 34.4678C8.09195 34.4145 8.23499 34.3594 8.45168 34.2757C8.45168 34.5998 8.46692 34.8622 8.44745 35.1212C8.42883 35.3608 8.60573 35.5952 8.44999 35.9465C8.33233 35.751 8.25869 35.6359 8.19267 35.5165C7.87696 34.9486 7.43427 34.5423 6.79353 34.3603C5.90563 34.1081 5.0719 34.5533 4.78919 35.4369C4.52934 36.2495 4.60213 37.0181 5.08375 37.7308C5.84469 38.8557 6.9061 38.8768 7.93367 38.1506C8.11988 38.0185 8.28578 37.8577 8.48723 37.6884V37.6876Z" fill="white"/>
<path id="Vector_25" d="M26.4415 37.8481C26.3627 37.9776 26.3001 38.1207 26.2019 38.2333C25.5976 38.9256 24.8138 39.1626 23.9208 39.0975C23.4857 39.0661 23.0786 38.9451 22.7096 38.703C21.8674 38.1503 21.4712 37.0762 21.7353 36.0876C22.0756 34.8128 22.8856 34.1366 24.1358 33.9808C24.6284 33.9199 25.2091 34.0714 25.8947 34.4607C26.0089 34.4184 26.1418 34.3702 26.3009 34.3118C26.3348 34.8315 26.367 35.3173 26.3991 35.8023L26.323 35.837C26.2324 35.6999 26.1317 35.567 26.0521 35.424C25.8041 34.9804 25.4486 34.6461 24.9839 34.4531C24.3364 34.1831 23.7067 34.1975 23.1573 34.6969C23.0388 34.8044 22.9254 34.9347 22.856 35.0769C22.3541 36.1172 22.5166 37.4782 23.4536 38.2392C23.9064 38.6065 24.4117 38.7614 24.989 38.571C25.4156 38.4305 25.8219 38.2587 26.1317 37.9125C26.1858 37.8515 26.2705 37.8177 26.3407 37.7711C26.3737 37.7973 26.4076 37.8227 26.4406 37.849L26.4415 37.8481Z" fill="white"/>
<path id="Vector_26" d="M28.3118 39.0074C28.4075 38.8991 28.4371 38.8331 28.4819 38.8212C28.8451 38.7239 28.9145 38.4319 28.9187 38.1289C28.9305 37.0886 28.9339 36.0483 28.9187 35.0081C28.9119 34.5578 28.8205 34.4723 28.3854 34.3826C28.2204 34.3487 28.0579 34.336 28.0469 34.1016H30.3475C30.2857 34.1837 30.2493 34.2852 30.1824 34.3132C29.8007 34.4731 29.7897 34.4681 29.788 34.8346C29.7837 35.8748 29.7795 36.9151 29.7897 37.9553C29.7947 38.5267 29.9175 38.6536 30.4863 38.7958C30.554 38.8128 30.6082 38.8864 30.6471 39.0083H28.3118V39.0074Z" fill="white"/>
<path id="Vector_27" d="M12.8013 39.0091H10.4635C10.5541 38.9059 10.6006 38.8085 10.6751 38.7764C10.9214 38.6697 10.9807 38.475 10.9807 38.2364C10.9807 37.1385 10.9849 36.0399 10.9781 34.9421C10.9756 34.5299 10.9163 34.4731 10.5033 34.3767C10.3447 34.34 10.229 34.2483 10.1562 34.1016H12.3612C12.3934 34.2184 12.3316 34.2971 12.1987 34.3293C11.9295 34.3944 11.8694 34.584 11.8703 34.8329C11.8753 35.857 11.8677 36.8804 11.8745 37.9046C11.8779 38.4869 12.0082 38.635 12.5711 38.7958C12.6439 38.817 12.6964 38.9093 12.8013 39.0091Z" fill="white"/>
<path id="Vector_28" d="M59.71 34.1269C60.0655 33.9999 60.4346 34.2005 60.796 34.1489C61.16 34.0973 61.529 34.0829 61.9954 34.0439C61.9065 34.1785 61.8667 34.3004 61.8159 34.3055C61.4418 34.3436 61.4215 34.6077 61.4207 34.887C61.419 35.6742 61.4156 36.4613 61.4223 37.2477C61.4249 37.5575 61.4266 37.8715 61.474 38.1762C61.5468 38.6426 61.6255 38.7001 62.0936 38.7848C62.1765 38.7995 62.2434 38.8734 62.2942 39.0065H60.0638C60.1036 38.9329 60.1248 38.8263 60.1764 38.8076C60.4913 38.6951 60.5336 38.4555 60.5311 38.1669C60.5243 37.1275 60.5294 36.0881 60.5277 35.0487C60.5277 34.5069 60.5091 34.4909 59.9851 34.369C59.8827 34.3453 59.7887 34.2869 59.6914 34.2454C59.6982 34.2056 59.7049 34.1658 59.7117 34.126L59.71 34.1269Z" fill="white"/>
<path id="Vector_29" d="M27.9424 40.0596H28.3419C28.242 40.4929 28.1557 40.8925 28.0575 41.2894C27.873 42.0377 27.6775 42.7825 27.2001 43.414C26.9504 43.7441 27.1239 44.0945 27.1425 44.4415C27.1738 45.0162 27.1933 45.5935 27.1764 46.1691C27.1713 46.3468 27.0503 46.5322 26.9487 46.6939C26.7921 46.9436 26.5297 46.9673 26.3731 46.7193C26.2267 46.4882 26.0946 46.2106 26.0718 45.9439C25.9745 44.8173 26.0836 43.7348 26.7549 42.7529C27.3067 41.9446 27.724 41.0575 27.9424 40.0604V40.0596ZM26.7337 46.1733C26.8361 45.5436 26.9284 44.9773 26.7303 44.3213C26.6313 44.472 26.5356 44.5507 26.5331 44.6328C26.517 45.0899 26.5179 45.5478 26.5297 46.0057C26.5306 46.0523 26.6372 46.0971 26.7345 46.1742L26.7337 46.1733Z" fill="white"/>
<path id="Vector_30" d="M26.9032 40.0774C26.6425 41.0991 26.4732 42.1139 25.7631 42.9163C25.5591 43.1466 25.5591 43.398 25.6429 43.6663C25.78 44.1098 25.7665 44.5415 25.5413 44.9537C25.4778 45.0688 25.4 45.1865 25.3009 45.2686C25.2324 45.3253 25.1037 45.36 25.0199 45.338C24.584 45.2246 24.3021 44.6684 24.4427 44.2444C24.4934 44.0912 24.5451 43.9329 24.5611 43.7738C24.6179 43.2244 24.8489 42.7581 25.1824 42.3272C25.4186 42.0217 25.6539 41.7127 25.8511 41.3818C26.0542 41.0415 26.2252 40.6792 26.3852 40.3161C26.5062 40.0419 26.4944 40.03 26.9041 40.0766L26.9032 40.0774ZM25.1655 44.8174C25.3593 44.4128 25.2324 44.0243 25.2044 43.5639C24.8879 43.855 24.9776 44.1885 24.9133 44.4721C24.8836 44.6041 24.9217 44.7395 25.1655 44.8174Z" fill="white"/>
<path id="Vector_31" d="M24.5945 40.0352C24.4269 40.3103 24.3194 40.5007 24.1983 40.6818C24.09 40.8435 24.0942 40.9874 24.1535 41.1787C24.3194 41.7153 24.4802 42.263 24.2898 42.8309C24.2339 42.9985 24.1611 43.1602 24.0959 43.3244C23.9326 43.7324 23.82 43.6689 23.484 43.5047C23.214 43.3726 23.0701 43.1305 22.9727 42.8605C22.8009 42.3832 22.6714 41.9092 22.9092 41.4038C23.0591 41.0847 23.1606 40.7411 23.274 40.4051C23.3672 40.13 23.5347 39.9996 23.8378 40.0309C24.0553 40.0538 24.2771 40.0352 24.5945 40.0352ZM23.7201 43.1077C24.0536 42.7624 23.93 42.4043 23.8801 42.0945C23.8217 41.7323 23.9055 41.3048 23.5508 40.9908C23.2097 41.7382 23.2427 42.4111 23.7201 43.1077Z" fill="white"/>
<path id="Vector_32" d="M18.2246 40.043H20.1968C20.4896 40.4797 20.7825 40.919 21.0771 41.3566C21.1837 41.5149 21.1575 41.6588 21.05 41.8052C20.9306 41.9677 20.7893 42.0168 20.5878 41.9618C20.1418 41.8399 19.8108 41.5335 19.4765 41.2534C19.0516 40.8962 18.6741 40.4823 18.2255 40.043H18.2246Z" fill="white"/>
<path id="Vector_33" d="M22.1587 41.0742C22.438 40.7297 22.4397 40.4123 22.4059 40.0695C22.5574 39.9891 22.7123 39.9679 22.741 40.171C22.7969 40.5536 22.8003 40.9413 22.543 41.2722C22.3043 41.5795 21.9716 41.5905 21.7135 41.2883C21.4604 40.9921 21.3732 40.6391 21.3961 40.2531C21.4045 40.1177 21.4443 40.0187 21.5958 40.0153C21.7304 40.0128 21.8159 40.0703 21.8396 40.2159C21.8684 40.3894 21.9014 40.5655 21.9564 40.7322C21.9911 40.8363 22.069 40.9269 22.1587 41.0742Z" fill="white"/>
<path id="Vector_34" d="M44.9756 41.6283C44.4618 41.3372 44.6354 40.8344 44.6108 40.3976C44.6024 40.2427 44.5693 40.0514 44.8495 40.0354C44.8698 40.1742 44.8707 40.3198 44.9181 40.4493C44.9477 40.5314 45.0408 40.6338 45.1153 40.6422C45.1872 40.6499 45.2947 40.5644 45.3438 40.4916C45.4166 40.3832 45.4369 40.2402 45.5072 40.1302C45.5444 40.0717 45.6409 40.0497 45.7239 40.0049C45.7586 40.5517 45.3718 41.3812 44.9756 41.6292V41.6283Z" fill="white"/>
<path id="Vector_35" d="M47.2012 40.053C47.6735 40.0048 48.1128 39.9582 48.5631 40.053C48.1585 40.494 47.5558 40.511 47.2012 40.053Z" fill="white"/>
<path id="Vector_36" d="M39.3505 19.9336C40.0869 20.2654 40.3713 20.918 40.0446 21.4707C39.7196 21.3962 39.3988 21.2066 39.3014 20.9281C39.2041 20.6505 39.3226 20.2984 39.3497 19.9336H39.3505Z" fill="white"/>
</g>
</g>
</g>
<defs>
<clipPath id="clip0_2003_38960">
<rect width="66.2769" height="80" fill="white"/>
</clipPath>
</defs>
</svg>
