<svg width="173" height="70" viewBox="0 0 173 70" fill="none" xmlns="http://www.w3.org/2000/svg">
<g id="Logos">
<g id="South Florida Academy of Orthodontists">
<g id="Variant=White">
<g id="South Florida Academy of Orthodontists_2">
<path d="M7.99492 19.2386C12.2589 19.2386 14.7716 17.0305 14.7716 13.7056C14.7716 10.4822 12.2843 9.36548 8.52792 8.52792C5.83756 7.91878 4.79695 7.51269 4.79695 6.24366C4.79695 5.20305 5.76142 4.36548 7.36041 4.36548C9.03553 4.36548 10.7868 5.05076 12.335 6.29442L14.2893 3.60406C12.5127 2.08122 10.3046 1.19289 7.46193 1.19289C3.65482 1.19289 1.01523 3.40101 1.01523 6.62437C1.01523 10 3.62944 11.0406 7.30965 11.8782C9.97462 12.4873 10.9898 12.868 10.9898 14.1117C10.9898 15.203 10.0254 16.066 8.14721 16.066C5.93909 16.066 4.06091 15.203 2.41117 13.7817L0.253807 16.3452C2.28426 18.2234 4.97462 19.2386 7.99492 19.2386Z" fill="white"/>
<path d="M23.8023 19.2386C27.6856 19.2386 30.9343 16.0914 30.9343 12.3604C30.9343 8.62944 27.6856 5.50761 23.8023 5.50761C19.8937 5.50761 16.6196 8.62944 16.6196 12.3604C16.6196 16.0914 19.8937 19.2386 23.8023 19.2386ZM23.8023 16.1168C21.8227 16.1168 20.1729 14.3909 20.1729 12.3604C20.1729 10.3299 21.8227 8.62944 23.8023 8.62944C25.7567 8.62944 27.4064 10.3299 27.4064 12.3604C27.4064 14.3909 25.7567 16.1168 23.8023 16.1168Z" fill="white"/>
<path d="M42.1472 5.81218V13.6548L42.1219 13.5787C42.1219 15 40.929 16.1168 39.3807 16.1168C37.9087 16.1168 36.8934 15 36.8934 13.3756V5.81218H33.3148V14.1624C33.3148 17.132 35.3452 19.2386 38.1879 19.2386C39.8884 19.2386 41.3604 18.4772 42.1472 17.2843V18.934H45.8528V5.81218H42.1472Z" fill="white"/>
<path d="M55.9355 15.6853C55.6817 15.9391 55.1741 16.1168 54.6665 16.1168C53.9812 16.1168 53.4228 15.5076 53.4228 14.6447V8.80711H56.2655V5.81218H53.4228V2.20812H49.8695V5.81218H48.0675V8.80711H49.8695V15.2284C49.8695 17.5888 51.4939 19.2386 53.8035 19.2386C54.8695 19.2386 56.0624 18.7817 56.8238 18.0964L55.9355 15.6853Z" fill="white"/>
<path d="M66.7334 5.50761C65.0583 5.50761 63.6116 6.26904 62.7994 7.41117V1.19289H59.0938V18.934H62.7994V11.1675C62.7994 9.74619 63.9923 8.62944 65.5405 8.62944C67.0126 8.62944 68.0278 9.74619 68.0278 11.3706V18.934H71.6065V10.5838C71.6065 7.61421 69.5761 5.50761 66.7334 5.50761Z" fill="white"/>
<path d="M95.3516 4.8731V1.49746H81.9252V18.934H85.6815V12.0305H94.4379V8.65482H85.6815V4.8731H95.3516Z" fill="white"/>
<path d="M97.9097 18.934H101.615V1.19289H97.9097V18.934Z" fill="white"/>
<path d="M111.296 19.2386C115.18 19.2386 118.428 16.0914 118.428 12.3604C118.428 8.62944 115.18 5.50761 111.296 5.50761C107.388 5.50761 104.114 8.62944 104.114 12.3604C104.114 16.0914 107.388 19.2386 111.296 19.2386ZM111.296 16.1168C109.317 16.1168 107.667 14.3909 107.667 12.3604C107.667 10.3299 109.317 8.62944 111.296 8.62944C113.251 8.62944 114.9 10.3299 114.9 12.3604C114.9 14.3909 113.251 16.1168 111.296 16.1168Z" fill="white"/>
<path d="M124.641 8.24873V5.81218H120.936V18.934H124.641V12.665C124.641 10.203 126.393 8.62944 129.134 8.62944V5.50761C127.129 5.50761 125.504 6.54822 124.641 8.24873Z" fill="white"/>
<path d="M133.124 4.01015C134.216 4.01015 135.104 3.09645 135.104 1.9797C135.104 0.939086 134.216 0 133.124 0C131.982 0 131.094 0.939086 131.094 1.9797C131.094 3.09645 131.982 4.01015 133.124 4.01015ZM131.246 18.934H134.952V5.81218H131.246V18.934Z" fill="white"/>
<path d="M147.984 1.19289V7.69036C146.943 6.3198 145.42 5.50761 143.567 5.50761C140.065 5.50761 137.527 8.35025 137.527 12.3604C137.527 16.3959 140.065 19.2386 143.567 19.2386C145.42 19.2386 146.943 18.4264 147.984 17.0558V18.934H151.689V1.19289H147.984ZM144.633 16.1168C142.578 16.1168 141.131 14.5685 141.131 12.3604C141.131 10.1777 142.578 8.62944 144.633 8.62944C146.588 8.62944 147.984 10.1777 147.984 12.3604C147.984 14.5685 146.588 16.1168 144.633 16.1168Z" fill="white"/>
<path d="M160.805 5.50761C158.977 5.50761 157.175 6.01523 155.323 6.95431L156.566 9.41624C157.607 8.88325 158.749 8.47716 159.967 8.47716C162.125 8.47716 162.988 9.69543 162.988 11.0914V11.3452C161.871 10.9137 160.703 10.6853 159.637 10.6853C156.592 10.6853 154.18 12.4619 154.18 15.0508C154.18 17.5635 156.338 19.2386 159.13 19.2386C160.551 19.2386 162.048 18.6802 162.988 17.6142V18.934H166.566V11.0914C166.566 7.66497 164.231 5.50761 160.805 5.50761ZM159.967 16.6751C158.698 16.6751 157.759 16.0152 157.759 14.9492C157.759 13.8832 158.825 13.0964 160.17 13.0964C161.186 13.0964 162.15 13.2741 162.988 13.5787V14.797C162.734 16.0152 161.389 16.6751 159.967 16.6751Z" fill="white"/>
<path d="M14.1878 44.3147H18.401L11.2944 26.8782H7.1066L0 44.3147H4.18782L5.30457 41.5736H13.0711L14.1878 44.3147ZM6.59898 38.401L9.18782 32.0305L11.7766 38.401H6.59898Z" fill="white"/>
<path d="M26.7761 44.6193C28.9588 44.6193 30.7354 43.731 32.0299 42.3096L29.5679 40.2284C28.8827 40.9898 27.8167 41.4975 26.8014 41.4975C24.8471 41.4975 23.2228 39.7716 23.2228 37.7157C23.2228 35.7107 24.8471 34.0102 26.7761 34.0102C27.7913 34.0102 28.8319 34.4924 29.4918 35.2284L31.9537 33.1218C30.6847 31.7513 28.9334 30.8883 26.8014 30.8883C22.9182 30.8883 19.6187 34.0102 19.6187 37.7411C19.6187 41.4721 22.8928 44.6193 26.7761 44.6193Z" fill="white"/>
<path d="M40.1225 30.8883C38.2951 30.8883 36.4931 31.3959 34.6403 32.335L35.884 34.797C36.9246 34.264 38.0667 33.8579 39.285 33.8579C41.4423 33.8579 42.3053 35.0761 42.3053 36.4721V36.7259C41.1885 36.2944 40.021 36.066 38.955 36.066C35.9093 36.066 33.4982 37.8426 33.4982 40.4315C33.4982 42.9442 35.6555 44.6193 38.4474 44.6193C39.8687 44.6193 41.3662 44.0609 42.3053 42.9949V44.3147H45.884V36.4721C45.884 33.0457 43.5489 30.8883 40.1225 30.8883ZM39.285 42.0558C38.0159 42.0558 37.0769 41.3959 37.0769 40.3299C37.0769 39.264 38.1428 38.4772 39.488 38.4772C40.5033 38.4772 41.4677 38.6548 42.3053 38.9594V40.1777C42.0515 41.3959 40.7063 42.0558 39.285 42.0558Z" fill="white"/>
<path d="M58.8041 26.5736V33.0711C57.7635 31.7005 56.2407 30.8883 54.3879 30.8883C50.8853 30.8883 48.3473 33.731 48.3473 37.7411C48.3473 41.7766 50.8853 44.6193 54.3879 44.6193C56.2407 44.6193 57.7635 43.8071 58.8041 42.4365V44.3147H62.5097V26.5736H58.8041ZM55.4539 41.4975C53.398 41.4975 51.9513 39.9492 51.9513 37.7411C51.9513 35.5584 53.398 34.0102 55.4539 34.0102C57.4082 34.0102 58.8041 35.5584 58.8041 37.7411C58.8041 39.9492 57.4082 41.4975 55.4539 41.4975Z" fill="white"/>
<path d="M71.9553 41.3452C70.4071 41.3452 69.2649 40.3807 68.8335 38.9594H78.3005C78.3005 34.0102 75.8893 30.8883 71.7776 30.8883C67.9451 30.8883 65.0264 33.7563 65.0264 37.7157C65.0264 41.7513 68.0721 44.6193 71.9807 44.6193C73.9096 44.6193 76.1685 43.8071 77.336 42.5888L74.9756 40.1777C74.2649 40.8629 72.9959 41.3452 71.9553 41.3452ZM71.9299 34.1624C73.4274 34.1624 74.3919 35 74.7472 36.2944H68.8842C69.3665 34.9746 70.534 34.1624 71.9299 34.1624Z" fill="white"/>
<path d="M96.4166 30.8883C94.4622 30.8883 92.8379 31.8274 92.1526 33.2741C91.3404 31.802 89.7922 30.8883 87.9902 30.8883C86.3658 30.8883 85.0714 31.6751 84.4369 32.9188V31.1929H80.7313V44.3147H84.4369V36.3959C84.4369 35 85.4775 34.0102 86.9749 34.0102C88.3201 34.0102 89.2846 35.0761 89.2846 36.599V44.3401H92.8379V36.3959C92.8379 35 93.9039 34.0102 95.3759 34.0102C96.7465 34.0102 97.711 35.0761 97.711 36.599V44.3401H101.264V35.9645C101.264 32.9949 99.1577 30.8883 96.4166 30.8883Z" fill="white"/>
<path d="M107.374 48.8833C109.43 48.8833 111.105 47.5381 112.094 44.9746L117.475 31.1929H113.693L110.419 40.4061L106.968 31.1929H103.135L108.592 44.4416L108.135 45.4061C107.856 45.8883 107.298 46.1168 106.587 46.1168C106.155 46.1168 105.496 45.8883 104.861 45.533L104.074 48.0711C104.963 48.5533 106.282 48.8833 107.374 48.8833Z" fill="white"/>
<path d="M135.391 44.6193C140.442 44.6193 144.655 40.4822 144.655 35.5838C144.655 30.6853 140.442 26.5736 135.391 26.5736C130.391 26.5736 126.127 30.6853 126.127 35.5838C126.127 40.4822 130.391 44.6193 135.391 44.6193ZM135.391 41.2183C132.472 41.2183 129.985 38.6294 129.985 35.5838C129.985 32.5635 132.472 29.9746 135.391 29.9746C138.335 29.9746 140.822 32.5635 140.822 35.5838C140.822 38.6294 138.335 41.2183 135.391 41.2183Z" fill="white"/>
<path d="M151.699 30.4822C151.699 29.6193 152.257 29.0102 152.942 29.0102C153.45 29.0102 153.958 29.1878 154.211 29.4416L155.1 27.1827C154.338 26.4975 153.145 26.0406 152.079 26.0406C149.77 26.0406 148.145 27.6904 148.145 30.0508V31.1929H146.343V34.1878H148.145V44.3147H151.699V34.1878H154.541V31.1929H151.699V30.4822Z" fill="white"/>
<path d="M9.97462 70C15.0254 70 19.2386 65.8629 19.2386 60.9645C19.2386 56.066 15.0254 51.9543 9.97462 51.9543C4.97462 51.9543 0.71066 56.066 0.71066 60.9645C0.71066 65.8629 4.97462 70 9.97462 70ZM9.97462 66.599C7.05584 66.599 4.56853 64.0101 4.56853 60.9645C4.56853 57.9442 7.05584 55.3553 9.97462 55.3553C12.9188 55.3553 15.4061 57.9442 15.4061 60.9645C15.4061 64.0101 12.9188 66.599 9.97462 66.599Z" fill="white"/>
<path d="M25.597 59.0102V56.5736H21.8915V69.6954H25.597V63.4264C25.597 60.9645 27.3483 59.3909 30.0894 59.3909V56.269C28.0844 56.269 26.46 57.3096 25.597 59.0102Z" fill="white"/>
<path d="M39.1307 66.4467C38.8769 66.7005 38.3693 66.8782 37.8617 66.8782C37.1764 66.8782 36.618 66.269 36.618 65.4061V59.5685H39.4607V56.5736H36.618V52.9695H33.0647V56.5736H31.2627V59.5685H33.0647V65.9899C33.0647 68.3503 34.6891 70 36.9987 70C38.0647 70 39.2576 69.5431 40.019 68.8579L39.1307 66.4467Z" fill="white"/>
<path d="M49.9286 56.269C48.2535 56.269 46.8068 57.0305 45.9946 58.1726V51.9543H42.289V69.6954H45.9946V61.9289C45.9946 60.5076 47.1875 59.3909 48.7357 59.3909C50.2078 59.3909 51.223 60.5076 51.223 62.132V69.6954H54.8017V61.3452C54.8017 58.3756 52.7713 56.269 49.9286 56.269Z" fill="white"/>
<path d="M64.3768 70C68.26 70 71.5088 66.8528 71.5088 63.1218C71.5088 59.3909 68.26 56.269 64.3768 56.269C60.4682 56.269 57.194 59.3909 57.194 63.1218C57.194 66.8528 60.4682 70 64.3768 70ZM64.3768 66.8782C62.3971 66.8782 60.7473 65.1523 60.7473 63.1218C60.7473 61.0914 62.3971 59.3909 64.3768 59.3909C66.3311 59.3909 67.9808 61.0914 67.9808 63.1218C67.9808 65.1523 66.3311 66.8782 64.3768 66.8782Z" fill="white"/>
<path d="M83.813 51.9543V58.4518C82.7724 57.0812 81.2496 56.269 79.3968 56.269C75.8943 56.269 73.3562 59.1117 73.3562 63.1218C73.3562 67.1574 75.8943 70 79.3968 70C81.2496 70 82.7724 69.1878 83.813 67.8173V69.6954H87.5186V51.9543H83.813ZM80.4628 66.8782C78.407 66.8782 76.9603 65.3299 76.9603 63.1218C76.9603 60.9391 78.407 59.3909 80.4628 59.3909C82.4171 59.3909 83.813 60.9391 83.813 63.1218C83.813 65.3299 82.4171 66.8782 80.4628 66.8782Z" fill="white"/>
<path d="M97.218 70C101.101 70 104.35 66.8528 104.35 63.1218C104.35 59.3909 101.101 56.269 97.218 56.269C93.3094 56.269 90.0353 59.3909 90.0353 63.1218C90.0353 66.8528 93.3094 70 97.218 70ZM97.218 66.8782C95.2383 66.8782 93.5886 65.1523 93.5886 63.1218C93.5886 61.0914 95.2383 59.3909 97.218 59.3909C99.1723 59.3909 100.822 61.0914 100.822 63.1218C100.822 65.1523 99.1723 66.8782 97.218 66.8782Z" fill="white"/>
<path d="M114.446 56.269C112.746 56.269 111.274 57.0305 110.487 58.2233V56.5736H106.781V69.6954H110.487V61.8528L110.512 61.9289C110.512 60.5076 111.705 59.3909 113.253 59.3909C114.725 59.3909 115.741 60.5076 115.741 62.132V69.6954H119.319V61.3452C119.319 58.3756 117.289 56.269 114.446 56.269Z" fill="white"/>
<path d="M129.351 66.4467C129.097 66.7005 128.59 66.8782 128.082 66.8782C127.397 66.8782 126.839 66.269 126.839 65.4061V59.5685H129.681V56.5736H126.839V52.9695H123.285V56.5736H121.483V59.5685H123.285V65.9899C123.285 68.3503 124.91 70 127.219 70C128.285 70 129.478 69.5431 130.24 68.8579L129.351 66.4467Z" fill="white"/>
<path d="M134.413 54.7716C135.504 54.7716 136.393 53.8579 136.393 52.7411C136.393 51.7005 135.504 50.7614 134.413 50.7614C133.271 50.7614 132.383 51.7005 132.383 52.7411C132.383 53.8579 133.271 54.7716 134.413 54.7716ZM132.535 69.6954H136.24V56.5736H132.535V69.6954Z" fill="white"/>
<path d="M144.399 70C147.623 70 149.729 68.3503 149.729 65.7614C149.729 62.8934 147.217 62.132 144.958 61.5482C143.181 61.066 142.648 60.8629 142.648 60.1523C142.648 59.6954 143.283 59.3655 144.196 59.3655C145.313 59.3655 146.684 59.797 147.877 60.533L149.374 57.8934C147.927 56.9289 146.075 56.269 144.196 56.269C141.1 56.269 139.044 58.0457 139.069 60.533C139.095 63.1218 141.176 63.8579 143.866 64.5178C145.212 64.8731 146.176 65.1269 146.176 65.9391C146.176 66.5228 145.465 66.9289 144.476 66.9289C142.724 66.9289 141.252 66.2944 140.085 65.4568L138.486 68.0203C140.059 69.2893 142.293 70 144.399 70Z" fill="white"/>
<path d="M159.119 66.4467C158.865 66.7005 158.358 66.8782 157.85 66.8782C157.165 66.8782 156.606 66.269 156.606 65.4061V59.5685H159.449V56.5736H156.606V52.9695H153.053V56.5736H151.251V59.5685H153.053V65.9899C153.053 68.3503 154.677 70 156.987 70C158.053 70 159.246 69.5431 160.007 68.8579L159.119 66.4467Z" fill="white"/>
<path d="M167.252 70C170.475 70 172.582 68.3503 172.582 65.7614C172.582 62.8934 170.069 62.132 167.81 61.5482C166.034 61.066 165.501 60.8629 165.501 60.1523C165.501 59.6954 166.135 59.3655 167.049 59.3655C168.166 59.3655 169.536 59.797 170.729 60.533L172.227 57.8934C170.78 56.9289 168.927 56.269 167.049 56.269C163.952 56.269 161.897 58.0457 161.922 60.533C161.947 63.1218 164.029 63.8579 166.719 64.5178C168.064 64.8731 169.029 65.1269 169.029 65.9391C169.029 66.5228 168.318 66.9289 167.328 66.9289C165.577 66.9289 164.105 66.2944 162.937 65.4568L161.338 68.0203C162.912 69.2893 165.145 70 167.252 70Z" fill="white"/>
</g>
</g>
</g>
</g>
</svg>
